<?xml version="1.0" standalone="no"?>
<!DOCTYPE svg PUBLIC "-//W3C//DTD SVG 20010904//EN"
 "http://www.w3.org/TR/2001/REC-SVG-20010904/DTD/svg10.dtd">
<svg version="1.0" xmlns="http://www.w3.org/2000/svg"
 width="270.000000pt" height="270.000000pt" viewBox="0 0 270.000000 270.000000"
 preserveAspectRatio="xMidYMid meet">
<metadata>
Created by potrace 1.11, written by Peter Selinger 2001-2013
</metadata>
<g transform="translate(0.000000,270.000000) scale(0.100000,-0.100000)"
fill="#000000" stroke="none">
<path d="M50 2693 c-8 -3 -23 -15 -32 -27 -16 -20 -18 -104 -18 -1309 0 -1425
-4 -1340 63 -1352 17 -3 609 -4 1314 -3 1215 3 1283 4 1300 21 17 17 18 83 18
1327 0 1244 -1 1310 -18 1327 -17 17 -84 18 -1315 20 -713 1 -1304 -1 -1312
-4z"/>
</g>
</svg>
