<?xml version="1.0" encoding="utf-8"?>
<!-- Generator: Adobe Illustrator 22.1.0, SVG Export Plug-In . SVG Version: 6.00 Build 0)  -->
<svg version="1.1" id="Layer_2" xmlns="http://www.w3.org/2000/svg" xmlns:xlink="http://www.w3.org/1999/xlink" x="0px" y="0px"
	 viewBox="0 0 100 85" style="enable-background:new 0 0 100 85;" xml:space="preserve">
<style type="text/css">
	.st0{fill:none;stroke:url(#SVGID_1_);stroke-miterlimit:10;}
</style>
<g>
	<linearGradient id="SVGID_1_" gradientUnits="userSpaceOnUse" x1="50.8175" y1="80.8355" x2="50.8175" y2="4.8855">
		<stop  offset="0" style="stop-color:#E92F6E"/>
		<stop  offset="0.3" style="stop-color:#EE3968"/>
		<stop  offset="0.6" style="stop-color:#EF4F79"/>
		<stop  offset="1" style="stop-color:#9F9E9E"/>
	</linearGradient>
	<path class="st0" d="M82.3,68.9c0-10.1-5.4-14.1-13.1-15.7c-6.9-1.4-13.1-1.7-10.6-11c3.3-2.4,4.1-7.5,8.2-9.1
		c0.3-2.5,0.2-4.1,0-6.7c-0.2-1-1.9-0.5-2.1-1.5c-0.2-5.2,1.7-12.8-1.8-15.2c-0.6-0.4-1.2-0.5-1.8-0.5c-0.6,0-1.3,0.1-2,0.1
		c-0.5,0-1-0.1-1.4-0.2c-2-0.7-2.1-3.4-4.3-3.6c-0.6,0-1.2,0-1.8,0c-3.1,2.1-6.7,1.7-9.8,2.6c-0.2,0-0.3,0.1-0.5,0.1
		c-1.8,0.6-3,1.7-3.7,3.1c-1,2-1.2,4.7-1.2,7.7c0,1.8,0,3.7,0,5.6c-1.6,0.8-2.2,2.6-2.2,4.4c0,1.1,0.1,2.1,0.4,3
		c0.5,1.7,2.1,2.1,3.3,3.7c1.5,1.8,2.5,4.3,3.9,5.7c0.5,0.5,1,0.9,1.6,1c0,2,0,4,0,6c-0.5,0.7-1,1.2-1.6,1.8
		c-5.7,4.8-17.2,2.7-20.9,9.8c-1.1,2.2-0.8,5-1.5,8.5c0,0,0,0.1,0,0.1c0,0.3,0,0.5,0,0.8c0,0,0,0.1,0,0.1c0,0,0,0,0,0
		c0.3,4.2,6.9,7.8,16.5,9.7c0.1,0,0.1-0.1,0.2-0.1c4.4,0.8,9.5,1.3,14.8,1.3c15.4,0,28.2-4,30.9-9.3c0.3-0.6,0.5-1.1,0.5-1.7
		c0,0,0,0,0,0c0-0.1,0-0.2,0-0.3c0,0,0,0,0-0.1C82.3,68.9,82.3,68.9,82.3,68.9z"/>
</g>
</svg>
