<?xml version="1.0" encoding="UTF-8"?>
<svg width="45px" height="25px" viewBox="0 0 45 25" version="1.1" xmlns="http://www.w3.org/2000/svg" xmlns:xlink="http://www.w3.org/1999/xlink">
    <!-- Generator: Sketch 57.1 (83088) - https://sketch.com -->
    <title>code</title>
    <desc>Created with Sketch.</desc>
    <g id="Page-1" stroke="none" stroke-width="1" fill="none" fill-rule="evenodd">
        <g id="code-sm" transform="translate(3.000000, 1.000000)">
            <g id="Path" transform="translate(0.000000, 2.000000)">
                <g id="path-1-link">
                    <polyline id="path-1" points="11.2618258 0 0 10.0792423 11.052397 18"></polyline>
                </g>
                <g id="path-1-link" stroke="#F2F2F2" stroke-width="2">
                    <polyline id="path-1" points="11.2618258 0 0 10.0792423 11.052397 18"></polyline>
                </g>
            </g>
            <g id="Path" transform="translate(28.000000, 2.000000)">
                <g id="path-3-link">
                    <polyline id="path-3" points="0 18 11.2618258 7.92075772 0.209428885 0"></polyline>
                </g>
                <g id="path-3-link" stroke="#F2F2F2" stroke-width="2">
                    <polyline id="path-3" points="0 18 11.2618258 7.92075772 0.209428885 0"></polyline>
                </g>
            </g>
            <g id="Path-3" transform="translate(16.000000, 0.000000)">
                <g id="path-5-link">
                    <path d="M6,0 C4.66730245,5.10867397 3.66730243,8.94200732 3,11.5 C2.33269757,14.0579927 1.33269755,17.8913261 0,23" id="path-5"></path>
                </g>
                <g id="path-5-link" stroke="#F2F2F2" stroke-width="2">
                    <path d="M6,0 C4.66730245,5.10867397 3.66730243,8.94200732 3,11.5 C2.33269757,14.0579927 1.33269755,17.8913261 0,23" id="path-5"></path>
                </g>
            </g>
        </g>
    </g>
</svg>