<?xml version="1.0" encoding="UTF-8"?>
<svg width="36px" height="21px" viewBox="0 0 36 21" version="1.1" xmlns="http://www.w3.org/2000/svg" xmlns:xlink="http://www.w3.org/1999/xlink">
    <!-- Generator: Sketch 57.1 (83088) - https://sketch.com -->
    <title>code</title>
    <desc>Created with Sketch.</desc>
    <g id="Page-1" stroke="none" stroke-width="1" fill="none" fill-rule="evenodd">
        <g id="code" transform="translate(2.000000, 1.000000)">
            <g id="Path" transform="translate(0.000000, 2.000000)">
                <g id="path-1-link">
                    <polyline id="path-1" points="9.38485486 0 0 8.39936858 9.21033086 15"></polyline>
                </g>
                <g id="path-1-link" stroke="#F2F2F2" stroke-width="2">
                    <polyline id="path-1" points="9.38485486 0 0 8.39936858 9.21033086 15"></polyline>
                </g>
            </g>
            <g id="Path" transform="translate(23.000000, 2.000000)">
                <g id="path-3-link">
                    <polyline id="path-3" points="0 15 9.38485486 6.60063143 0.174524071 0"></polyline>
                </g>
                <g id="path-3-link" stroke="#F2F2F2" stroke-width="2">
                    <polyline id="path-3" points="0 15 9.38485486 6.60063143 0.174524071 0"></polyline>
                </g>
            </g>
            <g id="Path-3" transform="translate(13.000000, 0.000000)">
                <g id="path-5-link">
                    <path d="M5,0 C3.88941871,4.22020893 3.05608536,7.38687561 2.5,9.5 C1.94391464,11.6131244 1.11058129,14.7797911 0,19" id="path-5"></path>
                </g>
                <g id="path-5-link" stroke="#F2F2F2" stroke-width="2">
                    <path d="M5,0 C3.88941871,4.22020893 3.05608536,7.38687561 2.5,9.5 C1.94391464,11.6131244 1.11058129,14.7797911 0,19" id="path-5"></path>
                </g>
            </g>
        </g>
    </g>
</svg>