<?xml version="1.0" encoding="utf-8"?>
<!-- Generator: Adobe Illustrator 22.1.0, SVG Export Plug-In . SVG Version: 6.00 Build 0)  -->
<svg version="1.1" id="Layer_2" xmlns="http://www.w3.org/2000/svg" xmlns:xlink="http://www.w3.org/1999/xlink" x="0px" y="0px"
	 viewBox="0 0 100 85" style="enable-background:new 0 0 100 85;" xml:space="preserve">
<style type="text/css">
	.st0{fill:none;stroke:url(#SVGID_1_);stroke-miterlimit:10;}
</style>
<g>
	<linearGradient id="SVGID_1_" gradientUnits="userSpaceOnUse" x1="50.8869" y1="79.4882" x2="50.8869" y2="9.8075">
		<stop  offset="0" style="stop-color:#E92F6E"/>
		<stop  offset="0.3" style="stop-color:#EE3968"/>
		<stop  offset="0.6" style="stop-color:#EF4F79"/>
		<stop  offset="1" style="stop-color:#9F9E9E"/>
	</linearGradient>
	<path class="st0" d="M78.7,10.3H23.1c-3.1,0-5.7,3.1-5.7,7v40.1c0,3.9,2.6,7,5.7,7h36.6l19.6,13.8l-4.7-13.8h4.1
		c3.1,0,5.7-3.1,5.7-7V17.3C84.4,13.4,81.8,10.3,78.7,10.3z M50.8,46.5H25.6c-0.4,0-0.7-1-0.7-2.3c0-1.3,0.3-2.3,0.7-2.3h25.1
		c0.4,0,0.7,1,0.7,2.3C51.5,45.5,51.2,46.5,50.8,46.5z M60.1,35.2H25.7c-0.5,0-1-1-1-2.3c0-1.3,0.5-2.3,1-2.3h34.4c0.5,0,1,1,1,2.3
		C61.1,34.1,60.6,35.2,60.1,35.2z M75.2,24.3H25.8c-0.8,0-1.4-1-1.4-2.3c0-1.3,0.6-2.3,1.4-2.3h49.5c0.8,0,1.4,1,1.4,2.3
		C76.7,23.2,76,24.3,75.2,24.3z"/>
</g>
</svg>
