<?xml version="1.0" encoding="utf-8"?>
<!-- Generator: Adobe Illustrator 22.1.0, SVG Export Plug-In . SVG Version: 6.00 Build 0)  -->
<svg version="1.1" id="Layer_2" xmlns="http://www.w3.org/2000/svg" xmlns:xlink="http://www.w3.org/1999/xlink" x="0px" y="0px"
	 viewBox="0 0 100 85" style="enable-background:new 0 0 100 85;" xml:space="preserve">
<style type="text/css">
	.st0{fill:none;stroke:url(#SVGID_1_);stroke-miterlimit:10;}
	.st1{fill:none;stroke:#9E9E9E;stroke-miterlimit:10;}
	.st2{fill:url(#SVGID_2_);}
	.st3{fill:url(#SVGID_3_);}
	.st4{fill:#F1F2F2;}
</style>
<g>
	<g>
		<linearGradient id="SVGID_1_" gradientUnits="userSpaceOnUse" x1="50" y1="81.3615" x2="50" y2="10.3874">
			<stop  offset="0" style="stop-color:#E92F6E"/>
			<stop  offset="0.3" style="stop-color:#EE3968"/>
			<stop  offset="0.6" style="stop-color:#EF4F79"/>
			<stop  offset="1" style="stop-color:#9F9E9E"/>
		</linearGradient>
		<path class="st0" d="M55,39.5V10.9H45v28.6c-8.7,7.8-25.5,24-22.7,32c0.5,1.5,1.6,2.8,3.2,4c2.5,1.9,6.2,3.3,10.5,4.1
			c7.9,1.6,17.7,1.6,25.9,0c5.1-1,9.5-2.6,12.5-4.7c1.4-1,2.5-2.2,3.1-3.4C81.3,63.9,64,47.3,55,39.5z"/>
	</g>
	<polygon class="st1" points="59.4,4.1 40.6,4.1 41,8.4 44.8,8.4 45.1,10.2 54.6,10.2 55,8.4 58.6,8.4 	"/>
</g>
<linearGradient id="SVGID_2_" gradientUnits="userSpaceOnUse" x1="23.0931" y1="67.7795" x2="73.9333" y2="67.7795" gradientTransform="matrix(0.9999 1.214744e-02 -1.214744e-02 0.9999 1.6815 -8.5614)">
	<stop  offset="0" style="stop-color:#E92F6E"/>
	<stop  offset="0.5257" style="stop-color:#EE3968"/>
	<stop  offset="1" style="stop-color:#EF4F79"/>
</linearGradient>
<path class="st2" d="M54,41.6c9,9,23.7,24.8,20.1,30.4c-0.5,0.9-1.4,1.2-2.4,1.6c-19.5,7.8-35.3,3.3-35.3,3.3
	c-3.5-1-12.3-3.5-12.6-7.7c-0.1-1.4,0.7-2.5,1.2-3c5.7-7.3,20.5-23,21.9-24.4l3.4-0.3L54,41.6z"/>
<linearGradient id="SVGID_3_" gradientUnits="userSpaceOnUse" x1="46.8455" y1="35.3287" x2="54.0051" y2="35.3287">
	<stop  offset="0" style="stop-color:#E92F6E"/>
	<stop  offset="0.5257" style="stop-color:#EE3968"/>
	<stop  offset="1" style="stop-color:#EF4F79"/>
</linearGradient>
<polyline class="st3" points="46.8,42 46.8,28.7 53.3,28.7 54,41.7 "/>
<g>
	<path class="st4" d="M31.1,70.8l-3.8-4.4l0.9-0.8l1.4,1.6l0.4-0.4l-1.4-1.6l0.9-0.8l3.8,4.4l-0.9,0.8l-1.7-2L30.3,68l1.7,2
		L31.1,70.8z"/>
	<path class="st4" d="M34.3,68l-3.1-3.6l-0.5,0.5L30,64.1l1.9-1.7l0.7,0.8l-0.5,0.5l3.1,3.6L34.3,68z"/>
	<path class="st4" d="M36.2,66.4L32.4,62l1.3-1.2l2.7,2.4l-2-3l1.4-1.2l3.8,4.4l-0.8,0.7l-2.8-3.2l2.2,3.6l-0.8,0.7l-3.3-2.7
		l2.8,3.2L36.2,66.4z"/>
	<path class="st4" d="M40.3,62.8l-3.8-4.4l0.9-0.8l3.2,3.7l0.9-0.8l0.6,0.8L40.3,62.8z"/>
	<path class="st4" d="M44.2,59.2c-0.4,0-0.7-0.2-1-0.5L42.6,58l0.9-0.8l0.3,0.4c0.1,0.2,0.2,0.3,0.4,0.3c0.1,0.1,0.2,0,0.3,0
		c0.1-0.1,0.1-0.2,0.1-0.2c0-0.1-0.1-0.2-0.2-0.3l-0.8-0.9c-0.1-0.1-0.2-0.2-0.3-0.3c-0.1-0.1-0.2,0-0.3,0c-0.2,0.1-0.1,0.3,0.1,0.6
		l-0.8,0.7l-2-2.4l2.1-1.8l0.7,0.8l-1.3,1.1l0.5,0.6c0-0.1,0-0.2,0.1-0.3c0-0.1,0.1-0.2,0.2-0.3c0.4-0.3,0.7-0.4,1.1-0.3
		c0.4,0.1,0.7,0.5,1.2,0.9c0.3,0.4,0.6,0.7,0.7,1c0.2,0.3,0.2,0.6,0.2,0.9c-0.1,0.3-0.2,0.6-0.6,0.9C44.9,59,44.5,59.2,44.2,59.2z"
		/>
</g>
<g>
	<path class="st4" d="M42.2,74.5c-0.3-0.3-0.4-0.6-0.4-1.1l-0.1-2.7c0-0.6,0.1-1,0.3-1.3c0.2-0.3,0.6-0.5,1.1-0.5
		c0.4,0,0.8,0.1,1.1,0.3c0.3,0.2,0.4,0.6,0.4,1l0,1l-1.2,0l0-0.9c0-0.2,0-0.3-0.1-0.3c0-0.1-0.1-0.1-0.2-0.1c-0.1,0-0.2,0-0.2,0.1
		c0,0.1-0.1,0.2,0,0.3l0.1,2.9c0,0.2,0,0.3,0.1,0.3c0,0.1,0.1,0.1,0.2,0.1c0.2,0,0.3-0.2,0.3-0.5l0-1.1l1.2,0l0,1.1
		c0,1-0.4,1.5-1.4,1.5C42.8,74.9,42.4,74.7,42.2,74.5z"/>
	<path class="st4" d="M45.6,74.4c-0.2-0.3-0.4-0.7-0.4-1.3l0-0.6l1.1,0l0,0.7c0,0.3,0.1,0.4,0.3,0.4c0.1,0,0.2,0,0.2-0.1
		c0-0.1,0.1-0.2,0-0.3c0-0.2,0-0.3-0.1-0.5c0-0.1-0.1-0.2-0.2-0.3c-0.1-0.1-0.2-0.2-0.4-0.4l-0.5-0.5c-0.4-0.4-0.6-0.8-0.6-1.2
		c0-0.5,0.1-0.9,0.3-1.2c0.2-0.3,0.5-0.4,1-0.4c0.5,0,0.9,0.1,1.2,0.4c0.2,0.3,0.4,0.7,0.4,1.3l-1.2,0l0-0.4c0-0.1,0-0.1-0.1-0.2
		c0,0-0.1-0.1-0.2-0.1c-0.1,0-0.2,0-0.2,0.1c0,0.1-0.1,0.1-0.1,0.2c0,0.2,0.1,0.4,0.3,0.6l0.7,0.6c0.2,0.1,0.3,0.3,0.4,0.4
		c0.1,0.1,0.2,0.3,0.3,0.5c0.1,0.2,0.1,0.4,0.1,0.7c0,0.6-0.1,1-0.3,1.3c-0.2,0.3-0.5,0.5-1,0.5C46.3,74.7,45.9,74.6,45.6,74.4z"/>
	<path class="st4" d="M49.1,74.2c-0.2-0.3-0.4-0.7-0.4-1.3l0-0.6l1.1,0l0,0.7c0,0.3,0.1,0.4,0.3,0.4c0.1,0,0.2,0,0.2-0.1
		c0-0.1,0.1-0.2,0-0.3c0-0.2,0-0.3-0.1-0.5c0-0.1-0.1-0.2-0.2-0.3c-0.1-0.1-0.2-0.2-0.4-0.4l-0.5-0.5c-0.4-0.4-0.6-0.8-0.6-1.2
		c0-0.5,0.1-0.9,0.3-1.2c0.2-0.3,0.5-0.4,1-0.4c0.5,0,0.9,0.1,1.1,0.4c0.2,0.3,0.4,0.7,0.4,1.3l-1.2,0l0-0.4c0-0.1,0-0.1-0.1-0.2
		c0,0-0.1-0.1-0.2-0.1c-0.1,0-0.2,0-0.2,0.1c0,0.1-0.1,0.1-0.1,0.2c0,0.2,0.1,0.4,0.3,0.6l0.7,0.6c0.2,0.1,0.3,0.3,0.4,0.4
		c0.1,0.1,0.2,0.3,0.3,0.5c0.1,0.2,0.1,0.4,0.1,0.7c0,0.6-0.1,1-0.3,1.3c-0.2,0.3-0.5,0.5-1,0.5C49.7,74.6,49.3,74.5,49.1,74.2z"/>
	<path class="st4" d="M54.5,74c-0.2-0.3-0.4-0.7-0.4-1.2l0-0.6l1.2,0l0,0.6c0,0.2,0,0.3,0.1,0.4c0,0.1,0.1,0.1,0.3,0.1
		c0.1,0,0.2,0,0.2-0.1c0-0.1,0.1-0.2,0.1-0.2c0-0.1,0-0.2,0-0.4l0-0.1c0-0.5-0.2-0.7-0.5-0.7c-0.1,0-0.1,0-0.1,0l0-1
		c0.2,0,0.4-0.1,0.5-0.2c0.1-0.1,0.1-0.2,0.1-0.5c0-0.3-0.1-0.5-0.3-0.5c-0.1,0-0.2,0-0.2,0.1s-0.1,0.1-0.1,0.2c0,0.1,0,0.2,0,0.2
		l0,0.2l-1.2,0l0-0.2c0-0.5,0.1-0.9,0.3-1.2c0.2-0.3,0.6-0.4,1.1-0.4c1,0,1.5,0.5,1.5,1.5c0,0.3,0,0.5-0.1,0.7
		c-0.1,0.2-0.2,0.3-0.4,0.4c0.2,0.1,0.3,0.2,0.4,0.3c0.1,0.1,0.1,0.3,0.2,0.4c0,0.2,0.1,0.4,0.1,0.7c0,0.6-0.1,1.1-0.3,1.4
		c-0.2,0.3-0.6,0.5-1.2,0.5C55.1,74.4,54.7,74.3,54.5,74z"/>
</g>
<g>
	<path class="st4" d="M46.5,51c-0.1-0.2-0.1-0.5,0-0.7c0.1-0.2,0.2-0.4,0.4-0.6l1-1l0.8,0.8l-1,1c-0.1,0.1-0.1,0.1-0.1,0.2
		c0,0.1,0,0.1,0.1,0.2c0.1,0.1,0.1,0.1,0.2,0.1c0.1,0,0.1-0.1,0.2-0.1l3.2-3.2l0.8,0.8L49,51.6c-0.2,0.2-0.4,0.4-0.7,0.4
		c-0.2,0.1-0.5,0.1-0.7,0c-0.2-0.1-0.5-0.2-0.7-0.4C46.7,51.4,46.6,51.2,46.5,51z"/>
	<path class="st4" d="M48.8,53c0.1-0.3,0.3-0.6,0.6-0.9c0.3-0.3,0.5-0.4,0.7-0.5c0.2-0.1,0.4-0.1,0.6,0c0.2,0.1,0.5,0.2,0.8,0.4
		l0.3,0.2l0,0l0.4-0.3c0.1-0.1,0.1-0.2,0.2-0.3c0-0.1,0-0.2-0.1-0.2c0,0-0.1-0.1-0.2-0.1c-0.1,0-0.1,0-0.2,0.1l-0.2,0.2L51,50.6
		l0.1-0.1c0.3-0.3,0.7-0.5,1-0.5c0.3,0,0.6,0.2,1,0.6c0.3,0.3,0.4,0.6,0.5,0.9c0,0.3-0.1,0.6-0.4,0.9l-2.7,2.7l-0.8-0.8l0.4-0.4
		C49.9,54,49.7,54,49.5,54c-0.2,0-0.3-0.1-0.4-0.2C48.8,53.5,48.7,53.3,48.8,53z M50.3,53.6c0.1,0,0.2-0.1,0.2-0.2l1-1
		c-0.2-0.1-0.3-0.1-0.5-0.1c-0.1,0-0.3,0.1-0.4,0.2L50.2,53c-0.2,0.2-0.3,0.4-0.1,0.5C50.1,53.6,50.2,53.6,50.3,53.6z"/>
	<path class="st4" d="M51.5,56.2l3-4.1l0.8,0.8l-1.6,1.9l-0.5,0.6l0.6-0.5l2-1.6l0.8,0.8l-4.1,2.9L51.5,56.2z"/>
	<path class="st4" d="M53.8,58c0.1-0.3,0.3-0.6,0.6-0.9c0.3-0.3,0.5-0.4,0.7-0.5c0.2-0.1,0.4-0.1,0.6,0c0.2,0.1,0.5,0.2,0.8,0.4
		l0.3,0.2l0,0l0.4-0.3c0.1-0.1,0.1-0.2,0.2-0.3c0-0.1,0-0.2-0.1-0.2c0,0-0.1-0.1-0.2-0.1c-0.1,0-0.1,0-0.2,0.1l-0.2,0.2L56,55.7
		l0.1-0.1c0.3-0.3,0.7-0.5,1-0.5c0.3,0,0.6,0.2,1,0.6c0.3,0.3,0.4,0.6,0.5,0.9c0,0.3-0.1,0.6-0.4,0.9l-2.7,2.7l-0.8-0.8l0.4-0.4
		c-0.2,0.1-0.4,0.1-0.5,0.1c-0.2,0-0.3-0.1-0.4-0.2C53.8,58.6,53.7,58.3,53.8,58z M55.3,58.6c0.1,0,0.2-0.1,0.2-0.2l1-1
		c-0.2-0.1-0.3-0.1-0.5-0.1c-0.1,0-0.3,0.1-0.4,0.2L55.2,58c-0.2,0.2-0.3,0.4-0.1,0.5C55.1,58.6,55.2,58.6,55.3,58.6z"/>
	<path class="st4" d="M56.5,60.7c0-0.4,0.2-0.7,0.7-1.1l0.4-0.4l0.8,0.8l-0.5,0.5c-0.2,0.2-0.2,0.4-0.1,0.5c0.1,0.1,0.1,0.1,0.2,0.1
		c0.1,0,0.2-0.1,0.3-0.2c0.1-0.1,0.2-0.3,0.3-0.4c0.1-0.1,0.1-0.2,0.1-0.3c0-0.1,0-0.3,0-0.5l0-0.7c0-0.5,0.2-1,0.5-1.3
		c0.4-0.4,0.7-0.5,1.1-0.6c0.3,0,0.7,0.1,1,0.4c0.4,0.4,0.5,0.7,0.5,1.1c0,0.4-0.3,0.8-0.7,1.2l-0.8-0.8l0.3-0.3
		c0.1-0.1,0.1-0.1,0.1-0.2c0-0.1,0-0.1-0.1-0.2c-0.1-0.1-0.1-0.1-0.2-0.1c-0.1,0-0.1,0-0.2,0.1c-0.1,0.1-0.2,0.3-0.2,0.6l0,0.9
		c0,0.2,0,0.4,0,0.6c0,0.2-0.1,0.3-0.2,0.5c-0.1,0.2-0.2,0.4-0.4,0.5c-0.4,0.4-0.8,0.6-1.2,0.7c-0.4,0.1-0.7-0.1-1.1-0.4
		C56.6,61.4,56.4,61.1,56.5,60.7z"/>
	<path class="st4" d="M59,63.2c0-0.4,0.2-0.7,0.7-1.2l1.1-1.1c0.3-0.3,0.6-0.5,0.8-0.6c0.3-0.1,0.5-0.2,0.8-0.1
		c0.3,0.1,0.5,0.2,0.8,0.5c0.3,0.3,0.5,0.6,0.5,1c0,0.3-0.1,0.7-0.4,0.9l-0.5,0.5l-0.9-0.9l0.5-0.5c0.1-0.1,0.2-0.2,0.2-0.3
		c0-0.1,0-0.2-0.1-0.2c-0.1-0.1-0.3-0.1-0.5,0.1l-1.7,1.7c-0.1,0.1-0.1,0.2-0.2,0.3c0,0.1,0,0.2,0.1,0.2c0.1,0.1,0.1,0.1,0.2,0.1
		c0.1,0,0.2-0.1,0.3-0.2l0.6-0.6l0.9,0.9l-0.6,0.6c-0.3,0.3-0.6,0.4-1,0.4c-0.4,0-0.7-0.2-1-0.5C59.1,64,58.9,63.6,59,63.2z"/>
	<path class="st4" d="M64.6,62.3l0.8,0.8L65,63.6c0.2-0.1,0.4-0.1,0.5-0.1c0.2,0,0.3,0.1,0.5,0.3l-0.7,0.7c-0.1-0.1-0.3-0.2-0.4-0.3
		C64.8,64,64.7,64,64.6,64l-2.7,2.7l-0.8-0.8L64.6,62.3z"/>
	<path class="st4" d="M62.9,67.8l3.5-3.5l0.8,0.8l-3.5,3.5L62.9,67.8z M66.7,64l0.6-0.6l0.8,0.8l-0.6,0.6L66.7,64z"/>
	<path class="st4" d="M67.9,65.7l0.9,0.9l-0.2,0.2c0.3,0,0.5,0.1,0.7,0.3c0.3,0.3,0.4,0.6,0.3,0.8c-0.1,0.3-0.3,0.6-0.6,0.9
		l-1.3,1.3c-0.3,0.3-0.5,0.5-0.7,0.6c-0.2,0.1-0.4,0.2-0.6,0.2c-0.2,0-0.4-0.1-0.7-0.3c-0.2-0.2-0.3-0.4-0.3-0.7l-0.8,0.8l-0.9-0.9
		L67.9,65.7z M66.3,69.7c0.1,0,0.2-0.1,0.3-0.3l1.5-1.5c0.1-0.1,0.2-0.2,0.2-0.3c0-0.1,0-0.2-0.1-0.3c-0.1-0.1-0.3-0.1-0.6,0.2
		l-1.6,1.5c-0.1,0.1-0.2,0.2-0.2,0.3c0,0.1,0,0.2,0.1,0.3C66.1,69.7,66.2,69.7,66.3,69.7z"/>
	<path class="st4" d="M67.3,72c0-0.2,0.1-0.4,0.3-0.6l2.2-2.2L69.7,69l0.6-0.6l0.2,0.2l0.8-0.7l0.8,0.8l-0.8,0.7l0.2,0.2l-0.6,0.6
		l-0.2-0.2l-2,2c-0.1,0.1-0.1,0.1-0.1,0.1c0,0,0,0.1,0,0.1c0,0,0.1,0.1,0.1,0.1c0,0,0.1,0,0.1,0.1L68.2,73c-0.1,0-0.1-0.1-0.3-0.2
		c-0.1-0.1-0.2-0.2-0.3-0.2C67.4,72.4,67.3,72.2,67.3,72z"/>
</g>
</svg>
