<?xml version="1.0" encoding="utf-8"?>
<!-- Generator: Adobe Illustrator 22.1.0, SVG Export Plug-In . SVG Version: 6.00 Build 0)  -->
<svg version="1.1" id="Layer_3" xmlns="http://www.w3.org/2000/svg" xmlns:xlink="http://www.w3.org/1999/xlink" x="0px" y="0px"
	 viewBox="0 0 100 85" style="enable-background:new 0 0 100 85;" xml:space="preserve">
<style type="text/css">
	.st0{fill:none;stroke:url(#SVGID_1_);stroke-miterlimit:10;}
	.st1{opacity:0.7;fill:none;stroke:url(#SVGID_2_);stroke-miterlimit:10;}
	.st2{fill:none;stroke:url(#SVGID_3_);stroke-miterlimit:10;}
</style>
<g>
	<linearGradient id="SVGID_1_" gradientUnits="userSpaceOnUse" x1="49.7236" y1="80.4692" x2="49.7236" y2="3.9462">
		<stop  offset="0" style="stop-color:#E92F6E"/>
		<stop  offset="0.3" style="stop-color:#EE3968"/>
		<stop  offset="0.6" style="stop-color:#EF4F79"/>
		<stop  offset="1" style="stop-color:#9F9E9E"/>
	</linearGradient>
	<path class="st0" d="M69.9,39.8h-8.2c-0.3-3.8-2.8-7-6.3-8.4V19.3h3V4.4H40.6v14.9h3.1v12.1c-3.5,1.3-6,4.5-6.3,8.4h-7.9
		c-5.4,0-9.8,4.4-9.8,9.8v20.5c0,5.4,4.4,9.8,9.8,9.8h40.4c5.4,0,9.8-4.4,9.8-9.8V49.7C79.8,44.2,75.4,39.8,69.9,39.8z M43.7,13.2
		h11.8v4.7H43.7V13.2z M49.6,76.3c-9.5,0-17.2-7.7-17.2-17.2c0-4.6,1.9-8.9,4.9-12c3.1-3.2,7.5-5.2,12.3-5.2c4.8,0,9.2,2,12.3,5.2
		c3,3.1,4.9,7.3,4.9,11.9C66.7,68.5,59,76.3,49.6,76.3z"/>
	<linearGradient id="SVGID_2_" gradientUnits="userSpaceOnUse" x1="49.7236" y1="67.3079" x2="49.7236" y2="50.8526">
		<stop  offset="0" style="stop-color:#E92F6E"/>
		<stop  offset="0.3" style="stop-color:#EE3968"/>
		<stop  offset="0.6" style="stop-color:#EF4F79"/>
		<stop  offset="1" style="stop-color:#9F9E9E"/>
	</linearGradient>
	<path class="st1" d="M49.7,51.4c-4.3,0-7.7,3.5-7.7,7.7c0,0.5,0.1,1,0.1,1.5c0.7,3.6,3.8,6.3,7.6,6.3c3.8,0,7-2.8,7.6-6.4
		c0.1-0.4,0.1-0.9,0.1-1.3C57.5,54.8,54,51.4,49.7,51.4z"/>
	<linearGradient id="SVGID_3_" gradientUnits="userSpaceOnUse" x1="49.6106" y1="72.3614" x2="49.6106" y2="45.7983">
		<stop  offset="0" style="stop-color:#E92F6E"/>
		<stop  offset="0.3" style="stop-color:#EE3968"/>
		<stop  offset="0.6" style="stop-color:#EF4F79"/>
		<stop  offset="1" style="stop-color:#9F9E9E"/>
	</linearGradient>
	<path class="st2" d="M49.6,46.3c-5.5,0-10.1,3.5-12,8.4c-0.5,1.4-0.8,2.9-0.8,4.4c0,7,5.7,12.8,12.8,12.8c7.1,0,12.8-5.7,12.8-12.8
		c0-1.6-0.3-3.1-0.9-4.5C59.7,49.7,55,46.3,49.6,46.3z M49.6,70.1c-6.1,0-11.1-5-11.1-11.1c0-0.6,0.1-1.3,0.2-1.9
		C39.6,52,44.1,48,49.6,48c5.4,0,9.9,3.9,10.8,9.1c0.1,0.6,0.2,1.3,0.2,2C60.7,65.2,55.7,70.1,49.6,70.1z"/>
</g>
</svg>
