<?xml version="1.0" encoding="UTF-8"?>
<svg width="102px" height="120px" viewBox="0 0 102 120" version="1.1" xmlns="http://www.w3.org/2000/svg" xmlns:xlink="http://www.w3.org/1999/xlink">
    <!-- Generator: Sketch 54.1 (76490) - https://sketchapp.com -->
    <title>files icon-PDF@2x</title>
    <desc>Created with Sketch.</desc>
    <defs>
        <path d="M60,0 L85.2928932,0 C93.0248797,0 100,6.97512028 100,14.7071068 L100,40 L60,0 Z" id="path-1"></path>
        <filter x="-10.0%" y="-15.0%" width="120.0%" height="120.0%" filterUnits="objectBoundingBox" id="filter-2">
            <feOffset dx="0" dy="-2" in="SourceAlpha" result="shadowOffsetOuter1"></feOffset>
            <feGaussianBlur stdDeviation="1" in="shadowOffsetOuter1" result="shadowBlurOuter1"></feGaussianBlur>
            <feComposite in="shadowBlurOuter1" in2="SourceAlpha" operator="out" result="shadowBlurOuter1"></feComposite>
            <feColorMatrix values="0 0 0 0 0   0 0 0 0 0   0 0 0 0 0  0 0 0 0.0909637238 0" type="matrix" in="shadowBlurOuter1"></feColorMatrix>
        </filter>
    </defs>
    <g id="Page-1" stroke="none" stroke-width="1" fill="none" fill-rule="evenodd">
        <g id="files-icon-PDF">
            <path d="M60,0 L100,40 L100,106 C100,113.731986 93.7319865,120 86,120 L14,120 C6.2680135,120 0,113.731986 0,106 L0,14 C0,6.2680135 6.2680135,0 14,0 L60,0 Z" id="Combined-Shape" fill="#E94848"></path>
            <path d="M46.6333333,44 C44.0116162,44 41.8555556,46.156063 41.8555556,48.7777778 C41.8555556,52.0369341 43.6664069,56.0830573 45.5732639,59.8861111 C44.0827472,64.5520206 42.391347,69.5522111 40.228125,73.7715278 C35.8005602,75.508788 31.8520542,76.8000436 29.478125,78.7135417 C29.4411079,78.7513958 29.4062165,78.7912717 29.3736111,78.8329861 C28.5061159,79.7201239 28,80.92797 28,82.2222222 C28,84.8439322 30.1560613,87 32.7777778,87 C34.056238,87 35.2902176,86.522915 36.1819444,85.6114583 C36.2128058,85.5877995 36.2426916,85.5628946 36.2715278,85.5368056 C38.0189785,83.4501962 40.079432,79.6650289 41.9152778,76.2052083 C46.1463502,74.5408126 50.5809259,72.8472304 54.8600694,71.8305556 C57.9839287,74.3480914 62.5031388,76.0111111 66.2222222,76.0111111 C68.843937,76.0111111 71,73.8550433 71,71.2333333 C71,68.6116233 68.843937,66.4555556 66.2222222,66.4555556 C63.2397269,66.4555556 58.9055644,67.5202088 55.5916667,68.6354167 C52.9055489,66.1137514 50.4376637,62.964375 48.6638889,59.6173611 C49.9312317,55.7132081 51.4111111,51.8067499 51.4111111,48.7777778 C51.4111111,46.156063 49.255051,44 46.6333333,44 Z M46.6333333,46.8666667 C47.7057877,46.8666667 48.5444444,47.7053243 48.5444444,48.7777778 C48.5444444,50.2117943 47.7765442,52.8520326 46.8871528,55.690625 C45.6987207,52.9292032 44.7222222,50.279849 44.7222222,48.7777778 C44.7222222,47.7053243 45.5608794,46.8666667 46.6333333,46.8666667 Z M47.4545139,63.215625 C48.891508,65.5013856 50.5745136,67.6283328 52.4114583,69.5163194 C49.5781066,70.2910839 46.8109592,71.2838106 44.0802083,72.3232639 C45.3991244,69.3464217 46.4549846,66.2574211 47.4545139,63.215625 Z M66.2222222,69.3222222 C67.2946785,69.3222222 68.1333333,70.1608656 68.1333333,71.2333333 C68.1333333,72.3058011 67.2946785,73.1444444 66.2222222,73.1444444 C64.0691936,73.1444444 61.0091273,72.1725489 58.5628472,70.8152778 C61.3707788,70.0213067 64.4347074,69.3222222 66.2222222,69.3222222 Z M37.7048611,77.8774306 C36.3612946,80.2756839 35.0257848,82.5141683 34.0916667,83.640625 C33.7725708,83.9457339 33.3480925,84.1333333 32.7777778,84.1333333 C31.7053229,84.1333333 30.8666667,83.2946422 30.8666667,82.2222222 C30.8666667,81.7175456 31.0811626,81.216285 31.3743056,80.8934028 C32.4951082,80.026045 34.9334681,78.9866394 37.7048611,77.8774306 Z" id="acrobat-shape" fill="#FFFFFF" fill-rule="nonzero"></path>
            <g id="Path" transform="translate(80.000000, 20.000000) scale(-1, -1) translate(-80.000000, -20.000000) ">
                <use fill="black" fill-opacity="1" filter="url(#filter-2)" xlink:href="#path-1"></use>
                <use fill-opacity="0.4" fill="#FFFFFF" fill-rule="evenodd" xlink:href="#path-1"></use>
            </g>
        </g>
    </g>
</svg>