<?xml version="1.0" encoding="utf-8"?>
<!-- Generator: Adobe Illustrator 22.1.0, SVG Export Plug-In . SVG Version: 6.00 Build 0)  -->
<svg version="1.1" id="Layer_3" xmlns="http://www.w3.org/2000/svg" xmlns:xlink="http://www.w3.org/1999/xlink" x="0px" y="0px"
	 viewBox="0 0 100 85" style="enable-background:new 0 0 100 85;" xml:space="preserve">
<style type="text/css">
	.st0{fill:none;stroke:url(#SVGID_1_);stroke-miterlimit:10;}
	.st1{fill:url(#SVGID_2_);}
	.st2{fill:url(#SVGID_3_);}
	.st3{fill:url(#SVGID_4_);}
</style>
<g>
	<g>
		<linearGradient id="SVGID_1_" gradientUnits="userSpaceOnUse" x1="51.1627" y1="81.5703" x2="51.1627" y2="3.6385">
			<stop  offset="0" style="stop-color:#E92F6E"/>
			<stop  offset="0.3" style="stop-color:#EE3968"/>
			<stop  offset="0.6" style="stop-color:#EF4F79"/>
			<stop  offset="1" style="stop-color:#9F9E9E"/>
		</linearGradient>
		<path class="st0" d="M75.1,81.1H27.2c-4.3,0-7.8-4.5-7.8-10.1V14.2c0-5.6,3.5-10.1,7.8-10.1h33.9l0.4,0.3
			c6.1,5.9,14.7,14,20.9,19.7l0.5,0.5V71C82.9,76.5,79.4,81.1,75.1,81.1z"/>
	</g>
</g>
<g>
	<linearGradient id="SVGID_2_" gradientUnits="userSpaceOnUse" x1="42.464" y1="54.0923" x2="42.464" y2="39.0118">
		<stop  offset="0" style="stop-color:#E92F6E"/>
		<stop  offset="0.3" style="stop-color:#EE3968"/>
		<stop  offset="0.6" style="stop-color:#EF4F79"/>
		<stop  offset="1" style="stop-color:#9F9E9E"/>
	</linearGradient>
	<path class="st1" d="M38.8,39h4c1.2,0,2.1,0.4,2.6,1.2c0.5,0.8,0.8,1.9,0.8,3.4c0,1.5-0.2,2.6-0.7,3.4c-0.5,0.8-1.3,1.1-2.5,1.1
		h-1.2v6h-3V39z M41.9,45.4c0.4,0,0.6-0.1,0.8-0.2c0.2-0.1,0.3-0.3,0.3-0.6c0.1-0.3,0.1-0.6,0.1-1.1c0-0.6-0.1-1.1-0.2-1.4
		c-0.1-0.3-0.4-0.4-0.8-0.4h-0.3v3.7H41.9z"/>
	<linearGradient id="SVGID_3_" gradientUnits="userSpaceOnUse" x1="51.6809" y1="54.0923" x2="51.6809" y2="39.0118">
		<stop  offset="0" style="stop-color:#E92F6E"/>
		<stop  offset="0.3" style="stop-color:#EE3968"/>
		<stop  offset="0.6" style="stop-color:#EF4F79"/>
		<stop  offset="1" style="stop-color:#9F9E9E"/>
	</linearGradient>
	<path class="st2" d="M48,39h4.2c1.1,0,1.9,0.3,2.4,0.9s0.8,1.5,0.8,2.7l0,7.1c0,1.5-0.2,2.6-0.8,3.4c-0.5,0.7-1.4,1.1-2.6,1.1H48
		V39z M51.5,51.4c0.6,0,0.8-0.3,0.8-0.8v-7.8c0-0.3,0-0.6-0.1-0.8c-0.1-0.2-0.1-0.3-0.3-0.3c-0.1-0.1-0.4-0.1-0.6-0.1H51v9.8H51.5z"
		/>
	<linearGradient id="SVGID_4_" gradientUnits="userSpaceOnUse" x1="60.5109" y1="54.0923" x2="60.5109" y2="39.0118">
		<stop  offset="0" style="stop-color:#E92F6E"/>
		<stop  offset="0.3" style="stop-color:#EE3968"/>
		<stop  offset="0.6" style="stop-color:#EF4F79"/>
		<stop  offset="1" style="stop-color:#9F9E9E"/>
	</linearGradient>
	<path class="st3" d="M57.5,54.1V39h6v2.9h-3v2.4h2.8v2.9h-2.8v6.8H57.5z"/>
</g>
</svg>
