<?xml version="1.0" encoding="utf-8"?>
<!-- Generator: Adobe Illustrator 20.0.0, SVG Export Plug-In . SVG Version: 6.00 Build 0)  -->
<svg version="1.1" id="Layer_1" xmlns="http://www.w3.org/2000/svg" xmlns:xlink="http://www.w3.org/1999/xlink" x="0px" y="0px"
	 viewBox="0 0 24 24" style="enable-background:new 0 0 24 24;" xml:space="preserve">
<style type="text/css">
	.st0{fill:#4C4C4C;}
</style>
<g>
	<path class="st0" d="M21.2,19.6c0-3-1.6-4.1-3.8-4.6c-2-0.4-3.8-0.5-3.1-3.2c1-0.7,1.2-2.2,2.4-2.7c0.1-0.7,0.1-1.2,0-2
		c-0.1-0.3-0.6-0.2-0.6-0.4C16,5.2,16.6,3,15.5,2.3c-0.2-0.1-0.3-0.1-0.5-0.1s-0.4,0-0.6,0c-0.1,0-0.3,0-0.4-0.1
		c-0.6-0.2-0.6-1-1.2-1.1c-0.2,0-0.4,0-0.5,0c-0.9,0.6-2,0.5-2.9,0.8H9.3C8.7,2,8.4,2.4,8.1,2.8C7.8,3.4,7.8,4.1,7.8,5
		c0,0.5,0,1.1,0,1.6C7.3,6.9,7.2,7.4,7.1,7.9c0,0.3,0,0.6,0.1,0.9c0.2,0.5,0.6,0.6,1,1.1c0.4,0.5,0.7,1.3,1.1,1.7
		c0.1,0.1,0.3,0.2,0.5,0.3c0,0.6,0,1.2,0,1.8c-0.1,0.2-0.3,0.4-0.5,0.5c-1.7,1.4-5,0.8-6.1,2.9c-0.3,0.6-0.2,1.5-0.4,2.5l0,0
		c0,0.1,0,0.2,0,0.2l0,0l0,0c0.1,1.2,2,2.3,4.8,2.8l0,0c1.3,0.2,2.8,0.4,4.3,0.4c4.5,0,8.2-1.2,9-2.7c0.1-0.2,0.1-0.3,0.2-0.5l0,0
		C21.2,19.7,21.2,19.7,21.2,19.6L21.2,19.6L21.2,19.6z"/>
</g>
</svg>
