<?xml version="1.0" encoding="utf-8"?>
<!-- Generator: Adobe Illustrator 20.0.0, SVG Export Plug-In . SVG Version: 6.00 Build 0)  -->
<svg version="1.1" id="Layer_1" xmlns="http://www.w3.org/2000/svg" xmlns:xlink="http://www.w3.org/1999/xlink" x="0px" y="0px"
	 viewBox="0 0 24 24" style="enable-background:new 0 0 24 24;" xml:space="preserve">
<style type="text/css">
	.st0{fill:url(#SVGID_1_);}
	.st1{fill:#676767;}
	.st2{fill:#CFCFCF;}
	.st3{fill:#DBDBDB;}
	.st4{fill:url(#SVGID_2_);}
	.st5{fill:url(#SVGID_3_);}
	.st6{fill:url(#SVGID_4_);}
	.st7{fill:url(#SVGID_5_);}
	.st8{fill:url(#SVGID_6_);}
	.st9{fill:url(#SVGID_7_);}
	.st10{fill:url(#SVGID_8_);}
	.st11{fill:url(#SVGID_9_);}
	.st12{fill:url(#SVGID_10_);}
	.st13{fill:url(#SVGID_11_);}
	.st14{fill:url(#SVGID_12_);}
	.st15{fill:url(#SVGID_13_);}
	.st16{fill:url(#SVGID_14_);}
</style>
<linearGradient id="SVGID_1_" gradientUnits="userSpaceOnUse" x1="12.0174" y1="5.5512" x2="12.0174" y2="19.0605">
	<stop  offset="5.617980e-03" style="stop-color:#B0B0B0"/>
	<stop  offset="1" style="stop-color:#595959"/>
</linearGradient>
<polygon class="st0" points="22.4,5.6 22.4,5.6 1.7,5.6 1.7,18.9 22.4,18.9 22.4,18 22.4,18 22.4,5.6 "/>
<rect x="1.8" y="6.6" class="st1" width="20.4" height="12.2"/>
<polygon class="st2" points="22.1,18.6 22,18.5 21.1,17.9 19.6,17.9 4.4,17.9 2.9,17.9 2.1,18.5 1.9,18.6 1.8,18.7 1.8,18.8 
	22.2,18.8 22.2,18.7 "/>
<path class="st3" d="M19.6,17.9l-6.5-4.8C13.1,13.1,13,13,13,13c-0.3-0.2-0.6-0.3-0.9-0.4c-0.3,0-0.7,0.2-0.9,0.4
	c-0.1,0-0.1,0.1-0.2,0.1l-6.5,4.8H19.6z"/>
<linearGradient id="SVGID_2_" gradientUnits="userSpaceOnUse" x1="11.9532" y1="11.5507" x2="11.9532" y2="2.5217">
	<stop  offset="5.617980e-03" style="stop-color:#898989"/>
	<stop  offset="0.5899" style="stop-color:#000000"/>
</linearGradient>
<path class="st4" d="M10.9,13c0.1,0.1,0.1,0.1,0.2,0.1c0.3,0.2,0.6,0.4,0.9,0.4c0.3,0,0.7-0.2,0.9-0.4c0.1,0,0.1-0.1,0.2-0.1
	l7.8-6.5l0.1,0l0.3,0.2l-0.1,11.9H2.8L2.6,6.8L3,6.6l0.2,0L10.9,13z"/>
<radialGradient id="SVGID_3_" cx="12.0169" cy="13.7144" r="12.5965" gradientTransform="matrix(1 0 0 0.9894 0 4.455391e-02)" gradientUnits="userSpaceOnUse">
	<stop  offset="0.7416" style="stop-color:#FFFFFF"/>
	<stop  offset="0.8769" style="stop-color:#FDFDFD"/>
	<stop  offset="0.927" style="stop-color:#F7F6F7"/>
	<stop  offset="0.9629" style="stop-color:#EBEAEB"/>
	<stop  offset="0.9719" style="stop-color:#E7E6E7"/>
	<stop  offset="0.9885" style="stop-color:#D2D2D2"/>
	<stop  offset="1" style="stop-color:#C9C9C9"/>
</radialGradient>
<path class="st5" d="M21.4,18.7h0.9V6.3l-0.9,0.3h0l0,0l0,0v0l-8.2,6.5c-0.1,0.1-0.1,0.1-0.2,0.1c-0.3,0.2-0.6,0.4-1,0.4
	c-0.4,0-0.7-0.2-1-0.4c-0.1,0-0.1-0.1-0.2-0.1L2.7,6.6l-0.1,0L1.8,6.3l0,12.4h0.8v-0.1h18.7V18.7z"/>
<radialGradient id="SVGID_4_" cx="12.006" cy="12.8024" r="9.7877" gradientTransform="matrix(1 0 0 0.9862 0 1.0999)" gradientUnits="userSpaceOnUse">
	<stop  offset="0.309" style="stop-color:#FAFAFA"/>
	<stop  offset="0.6049" style="stop-color:#F6F6F6"/>
	<stop  offset="0.8671" style="stop-color:#ECECEC"/>
	<stop  offset="1" style="stop-color:#E3E3E3"/>
</radialGradient>
<path class="st6" d="M13.2,13.2c-0.1,0.1-0.1,0.1-0.2,0.1c-0.3,0.2-0.6,0.4-1,0.4c-0.4,0-0.7-0.2-1-0.4c-0.1,0-0.1-0.1-0.2-0.1
	L2.7,6.7L2.4,6.7l0,12.1h19.3v-12h-0.3L13.2,13.2z"/>
<linearGradient id="SVGID_5_" gradientUnits="userSpaceOnUse" x1="2.6904" y1="12.4618" x2="1.7112" y2="12.4618">
	<stop  offset="0.118" style="stop-color:#E5E5E5"/>
	<stop  offset="1" style="stop-color:#B8B8B8"/>
</linearGradient>
<polygon class="st7" points="2.6,6.4 2.6,18.8 1.8,18.8 1.8,6.2 "/>
<linearGradient id="SVGID_6_" gradientUnits="userSpaceOnUse" x1="21.2905" y1="12.4742" x2="22.2477" y2="12.4742">
	<stop  offset="0.118" style="stop-color:#E5E5E5"/>
	<stop  offset="1" style="stop-color:#B8B8B8"/>
</linearGradient>
<polygon class="st8" points="22.2,6.2 22.2,18.8 21.4,18.8 21.4,6.5 "/>
<linearGradient id="SVGID_7_" gradientUnits="userSpaceOnUse" x1="12.0126" y1="11.8348" x2="12.0126" y2="17.3278">
	<stop  offset="0.1742" style="stop-color:#F2F2F2"/>
	<stop  offset="0.2932" style="stop-color:#F9F9F9"/>
	<stop  offset="0.5" style="stop-color:#FFFFFF"/>
	<stop  offset="0.7338" style="stop-color:#EBEBEB"/>
	<stop  offset="1" style="stop-color:#CFCFCF"/>
</linearGradient>
<path class="st9" d="M12.9,12.1c-0.3-0.2-0.6-0.3-0.9-0.3c-0.3,0-0.7,0.2-0.9,0.3c-0.1,0-0.1,0.1-0.2,0.1l-9,6.5v0.1h20.2v-0.1
	l-9-6.5C13.1,12.2,13,12.2,12.9,12.1z"/>
<linearGradient id="SVGID_8_" gradientUnits="userSpaceOnUse" x1="12.0124" y1="17.8472" x2="12.0124" y2="18.7421">
	<stop  offset="5.617980e-03" style="stop-color:#CBCCCD"/>
	<stop  offset="0.5337" style="stop-color:#A3A3A3"/>
</linearGradient>
<polygon class="st10" points="21.4,18.2 21,17.9 3,17.9 2.6,18.2 1.8,18.8 1.8,18.8 1.8,18.8 1.8,18.8 22.2,18.8 22.2,18.8 "/>
<linearGradient id="SVGID_9_" gradientUnits="userSpaceOnUse" x1="12.0125" y1="10.4603" x2="12.0125" y2="25.5119">
	<stop  offset="0.1461" style="stop-color:#FFFFFF"/>
	<stop  offset="0.8764" style="stop-color:#000000"/>
</linearGradient>
<path class="st11" d="M21.4,17.9l-8.1-5.6c-0.1-0.1-0.2-0.1-0.2-0.1c-0.3-0.2-0.7-0.4-1.1-0.4c-0.4,0-0.8,0.2-1.1,0.4
	c-0.1,0-0.2,0.1-0.2,0.1l-8.1,5.6l-0.9,0.6v0.3h0.1v0l0.8-0.6l8.3-5.9c0.1,0,0.1-0.1,0.2-0.1c0.3-0.2,0.6-0.3,0.9-0.3
	c0.3,0,0.7,0.2,0.9,0.3c0.1,0,0.1,0.1,0.2,0.1l8.3,5.9l0.8,0.6v0h0.1v-0.3L21.4,17.9z"/>
<linearGradient id="SVGID_10_" gradientUnits="userSpaceOnUse" x1="11.9821" y1="11.8571" x2="11.9821" y2="17.3752">
	<stop  offset="5.617980e-03" style="stop-color:#C9C9C9"/>
	<stop  offset="0.9101" style="stop-color:#4A4A4A"/>
</linearGradient>
<path class="st12" d="M13,12.2c-0.3-0.2-0.6-0.3-0.9-0.3c-0.3,0-0.7,0.2-0.9,0.3c-0.1,0-0.1,0.1-0.2,0.1l-0.3,0.2l-0.2,0.1l0.5,0.4
	c0.1,0.1,0.1,0.1,0.2,0.1c0.3,0.2,0.6,0.3,1,0.4c0.4,0,0.7-0.2,1-0.4c0.1,0,0.1-0.1,0.2-0.1l0.5-0.4l-0.5-0.3
	C13.1,12.2,13,12.2,13,12.2z"/>
<linearGradient id="SVGID_11_" gradientUnits="userSpaceOnUse" x1="11.9821" y1="10.4305" x2="11.9821" y2="25.7703">
	<stop  offset="5.617980e-03" style="stop-color:#B4B4B4"/>
	<stop  offset="0.927" style="stop-color:#898989"/>
</linearGradient>
<path class="st13" d="M13.4,12.3c-0.1-0.1-0.2-0.1-0.2-0.1c-0.3-0.2-0.7-0.4-1.1-0.4c-0.4,0-0.8,0.2-1.1,0.4c-0.1,0-0.2,0.1-0.2,0.1
	l-0.4,0.3l0.1,0.1l0.2-0.1l0.4-0.3c0.1,0,0.1-0.1,0.2-0.1c0.3-0.2,0.6-0.3,0.9-0.3c0,0,0,0,0,0s0,0,0,0c0.3,0,0.7,0.2,1,0.4
	c0.1,0,0.1,0.1,0.2,0.1l0.5,0.3l0.1-0.1L13.4,12.3z"/>
<linearGradient id="SVGID_12_" gradientUnits="userSpaceOnUse" x1="12.0222" y1="-112.6269" x2="12.0222" y2="-97.1174" gradientTransform="matrix(1 0 0 -1 0 -98.332)">
	<stop  offset="5.617980e-03" style="stop-color:#626262"/>
	<stop  offset="1" style="stop-color:#BDBDBD"/>
</linearGradient>
<path class="st14" d="M21.4,6.6l-8,5.8c-0.1,0.1-0.2,0.1-0.2,0.1c-0.3,0.2-0.7,0.4-1.1,0.4c-0.4,0-0.8-0.2-1.1-0.4
	c-0.1,0-0.2-0.1-0.2-0.1l-8-5.8L1.8,6V5.7h0.1v0l0.8,0.6l8.2,6.1c0.1,0,0.1,0.1,0.2,0.1c0.3,0.2,0.6,0.3,0.9,0.4
	c0.3,0,0.7-0.2,0.9-0.4c0.1,0,0.1-0.1,0.2-0.1l8.2-6.1l0.8-0.6v0h0.1V6L21.4,6.6z"/>
<linearGradient id="SVGID_13_" gradientUnits="userSpaceOnUse" x1="12.0601" y1="12.8071" x2="12.0601" y2="5.1756">
	<stop  offset="5.617980e-03" style="stop-color:#FFFFFF"/>
	<stop  offset="0.382" style="stop-color:#FCFCFC"/>
	<stop  offset="0.618" style="stop-color:#FFFFFF"/>
	<stop  offset="0.8937" style="stop-color:#DFDFDF"/>
	<stop  offset="1" style="stop-color:#D2D2D2"/>
</linearGradient>
<path class="st15" d="M12.9,12.6c-0.3,0.2-0.6,0.3-0.9,0.4c-0.3,0-0.7-0.2-0.9-0.4c-0.1,0-0.1-0.1-0.2-0.1L2,5.8L1.9,5.7l20.3,0
	L22,5.8l-8.9,6.6C13.1,12.5,13,12.5,12.9,12.6z"/>
<linearGradient id="SVGID_14_" gradientUnits="userSpaceOnUse" x1="12.0124" y1="-508.352" x2="12.0124" y2="-507.4569" gradientTransform="matrix(1 0 0 -1 0 -501.7129)">
	<stop  offset="9.550560e-02" style="stop-color:#EDEDED"/>
	<stop  offset="1" style="stop-color:#CDCDCD"/>
</linearGradient>
<polygon class="st16" points="21.4,6.3 21,6.6 3,6.6 2.6,6.3 1.8,5.7 1.8,5.7 1.8,5.7 1.8,5.7 22.2,5.7 22.2,5.7 "/>
</svg>
