<?xml version="1.0" encoding="utf-8"?>
<!-- Generator: Adobe Illustrator 23.0.1, SVG Export Plug-In . SVG Version: 6.00 Build 0)  -->
<svg version="1.1" id="Layer_1" xmlns="http://www.w3.org/2000/svg" xmlns:xlink="http://www.w3.org/1999/xlink" x="0px" y="0px"
	 viewBox="0 0 24 24" style="enable-background:new 0 0 24 24;" xml:space="preserve">
<style type="text/css">
	.st0{fill:url(#SVGID_1_);}
	.st1{fill:url(#handle_1_);}
	.st2{opacity:0.5;fill:#797979;enable-background:new    ;}
	.st3{fill:none;stroke:#FFFFFF;stroke-width:0.12;stroke-miterlimit:10;}
	.st4{fill:none;stroke:#FFFFFF;stroke-width:0.12;stroke-miterlimit:10;stroke-dasharray:0.67,0.67,0.67,0.67;}
	.st5{fill:none;stroke:#FFFFFF;stroke-width:0.12;stroke-miterlimit:10;stroke-dasharray:0.67,0.67,0.67,0.67,0.67,0.67;}
	.st6{opacity:0.3;fill:url(#top-shadow_1_);enable-background:new    ;}
	.st7{fill:url(#top_1_);}
	.st8{fill:none;stroke:#FFFFFF;stroke-width:0.12;stroke-miterlimit:10;stroke-dasharray:0.59,0.59,0.59,0.59;}
	.st9{fill:none;stroke:#FFFFFF;stroke-width:0.12;stroke-miterlimit:10;stroke-dasharray:0.59,0.59,0.59,0.59,0.59,0.59;}
	.st10{fill:none;stroke:#FFFFFF;stroke-width:0.12;stroke-miterlimit:10;stroke-dasharray:0.76,0.76,0.76,0.76;}
	.st11{fill:none;stroke:#FFFFFF;stroke-width:0.12;stroke-miterlimit:10;stroke-dasharray:0.76,0.76,0.76,0.76,0.76,0.76;}
	.st12{fill:url(#SVGID_2_);}
	.st13{fill:url(#SVGID_3_);}
	.st14{fill:url(#SVGID_4_);}
	.st15{opacity:0.75;}
	.st16{fill:#515352;}
	.st17{fill:url(#SVGID_5_);}
	.st18{fill:url(#SVGID_6_);}
	.st19{fill:url(#SVGID_7_);}
	.st20{fill:url(#SVGID_8_);}
</style>
<title>suitcase-33</title>
<g>
	<g id="Layer_4">
		
			<radialGradient id="SVGID_1_" cx="12.3362" cy="-23.9482" r="8.6463" gradientTransform="matrix(1 0 0 -0.92 -0.33 -8.2654)" gradientUnits="userSpaceOnUse">
			<stop  offset="0" style="stop-color:#797979"/>
			<stop  offset="0.36" style="stop-color:#5D5D5D"/>
			<stop  offset="1" style="stop-color:#222221"/>
		</radialGradient>
		<path class="st0" d="M21.9,10.9c-0.1,0.1-0.1,0.2-0.1,0.4c0,2.9,0,5.7,0,8.6c0.1,0.5-0.3,0.9-0.8,1c-0.1,0-0.1,0-0.2,0
			c-2.4,0.1-4.8,0-7.2,0c-3,0-6.1,0.1-9.1,0c-0.5,0-0.9,0-1.4,0c-0.5,0-0.9-0.4-0.9-0.9c0,0,0-0.1,0-0.1c0-2.9,0-5.7,0-8.6
			c0-0.2,0.1-0.4-0.2-0.5V7l1.2-0.4h17.8l0.7,0.7L21.9,10.9z"/>
		
			<linearGradient id="handle_1_" gradientUnits="userSpaceOnUse" x1="12.3238" y1="16.3949" x2="12.3238" y2="19.4234" gradientTransform="matrix(1 0 0 -1 -0.33 22.9823)">
			<stop  offset="0" style="stop-color:#222221"/>
			<stop  offset="0.78" style="stop-color:#333333"/>
			<stop  offset="1" style="stop-color:#797979"/>
		</linearGradient>
		<path id="handle" class="st1" d="M9,6.1c0.2,0,0.3,0.1,0.4,0.1v0.4H7.2V6.2l0.5-0.1c0-0.4,0-0.8,0-1.1c0-0.7,0.5-1.3,1.2-1.4
			c0.1,0,0.2,0,0.3,0c1.9,0,3.7,0,5.6,0c0.7-0.1,1.4,0.4,1.4,1.1c0,0.1,0,0.2,0,0.2c0,0.4,0,0.8,0,1.2c0.2,0,0.3,0,0.5,0.1v0.4h-2.2
			V6.2L15,6.1c0-0.7-0.7-1.3-1.4-1.2c-1.1,0-2.1,0-3.2,0C9.7,4.8,9.1,5.3,9,6.1z"/>
		<path id="clasp" class="st2" d="M10.4,12.7c0,0.6,0,1.2,0,1.9c-0.1,0.3,0.1,0.6,0.4,0.6c0,0,0.1,0,0.1,0c0.7,0,1.5,0,2.2,0
			c0.3,0,0.5-0.2,0.6-0.5c0,0,0-0.1,0-0.1c0-0.6,0-1.2,0-1.9l0.7-0.1c-1.5-0.9-3-1-4.5,0L10.4,12.7z"/>
		<line class="st3" x1="2.6" y1="12.1" x2="2.6" y2="12.4"/>
		<line class="st4" x1="2.6" y1="12.8" x2="2.6" y2="14.2"/>
		<path class="st5" d="M2.6,14.5v5.2c0,0.4,0.1,0.9,1,0.9h8"/>
		<path class="st3" d="M11.8,20.6h0.2"/>
		<line class="st3" x1="21.5" y1="12.1" x2="21.5" y2="12.4"/>
		<line class="st4" x1="21.5" y1="12.8" x2="21.5" y2="14.2"/>
		<path class="st5" d="M21.5,14.5v5.2c0,0.4-0.1,0.9-1,0.9h-8"/>
		<path class="st3" d="M12.3,20.6h-0.2"/>
		
			<linearGradient id="top-shadow_1_" gradientUnits="userSpaceOnUse" x1="12.389" y1="8.2652" x2="12.389" y2="11.9515" gradientTransform="matrix(1 0 0 -1 -0.33 22.9823)">
			<stop  offset="0" style="stop-color:#222221"/>
			<stop  offset="0.6" style="stop-color:#333333"/>
			<stop  offset="0.89" style="stop-color:#797979"/>
		</linearGradient>
		<path id="top-shadow" class="st6" d="M21.8,13.1c-1.7,1-5.4,1.6-9.8,1.6s-8-0.6-9.7-1.6V11h19.5V13.1z"/>
		
			<linearGradient id="top_1_" gradientUnits="userSpaceOnUse" x1="12.33" y1="9.6224" x2="12.33" y2="16.5793" gradientTransform="matrix(1 0 0 -1 -0.33 22.9823)">
			<stop  offset="0" style="stop-color:#222221"/>
			<stop  offset="0.6" style="stop-color:#333333"/>
			<stop  offset="0.89" style="stop-color:#797979"/>
		</linearGradient>
		<path id="top" class="st7" d="M2,7v4.4c3.2,1.3,6.6,1.9,10.1,1.9c3.4,0,6.8-0.6,10-1.9V7c-0.1-0.3-0.3-0.5-0.6-0.6H2.8
			C2.5,6.5,2.1,6.7,2,7z"/>
		<line class="st3" x1="2.3" y1="6.8" x2="2.3" y2="7"/>
		<line class="st8" x1="2.3" y1="7.3" x2="2.3" y2="8.6"/>
		<line class="st9" x1="2.3" y1="8.8" x2="2.3" y2="10.8"/>
		<path class="st3" d="M2.3,11v0.2l0.2,0.1"/>
		<path class="st10" d="M3,11.5c0.4,0.1,0.9,0.3,1.6,0.5"/>
		<path class="st11" d="M4.7,12c2.3,0.6,4.7,1,7.1,0.9c3.2-0.1,6.3-0.6,9.4-1.6"/>
		<path class="st3" d="M21.4,11.3l0.2-0.1V11"/>
		<line class="st8" x1="21.6" y1="10.6" x2="21.6" y2="9.4"/>
		<line class="st9" x1="21.6" y1="9.2" x2="21.6" y2="7.2"/>
		<line class="st3" x1="21.6" y1="7" x2="21.6" y2="6.8"/>
		
			<linearGradient id="SVGID_2_" gradientUnits="userSpaceOnUse" x1="12.2849" y1="8.1051" x2="12.3221" y2="10.2896" gradientTransform="matrix(1 0 0 -1 -0.33 22.9823)">
			<stop  offset="0" style="stop-color:#F2F2F2"/>
			<stop  offset="0.29" style="stop-color:#DFE0E0"/>
			<stop  offset="0.58" style="stop-color:#D1D2D3"/>
			<stop  offset="1" style="stop-color:#F2F2F2"/>
		</linearGradient>
		<path class="st12" d="M10.7,12.7v1.9c0,0.1,0.1,0.2,0.2,0.2l0,0H13c0.1,0,0.2-0.1,0.2-0.2l0,0v-1.9"/>
		
			<linearGradient id="SVGID_3_" gradientUnits="userSpaceOnUse" x1="11.0609" y1="11.154" x2="13.5557" y2="11.154" gradientTransform="matrix(1 0 0 -1 -0.33 22.9823)">
			<stop  offset="0" style="stop-color:#F2F2F2"/>
			<stop  offset="0.29" style="stop-color:#DFE0E0"/>
			<stop  offset="0.58" style="stop-color:#D1D2D3"/>
			<stop  offset="1" style="stop-color:#F2F2F2"/>
		</linearGradient>
		<path class="st13" d="M10.7,12.5v-1.1c0-0.1,0.1-0.2,0.2-0.2l0,0H13c0.1,0,0.2,0.1,0.2,0.2l0,0v1.1"/>
		
			<linearGradient id="SVGID_4_" gradientUnits="userSpaceOnUse" x1="-783.8724" y1="978.2774" x2="-783.8724" y2="979.6551" gradientTransform="matrix(-1 0 0 1 -771.8693 -965.18)">
			<stop  offset="0" style="stop-color:#F2F2F2"/>
			<stop  offset="0.23" style="stop-color:#FFFFFF"/>
			<stop  offset="0.3" style="stop-color:#F7F7F8"/>
			<stop  offset="0.42" style="stop-color:#E2E2E4"/>
			<stop  offset="0.56" style="stop-color:#BEC0C3"/>
			<stop  offset="0.64" style="stop-color:#A6A8AC"/>
			<stop  offset="0.74" style="stop-color:#B6B8BB"/>
			<stop  offset="0.93" style="stop-color:#E0E1E2"/>
			<stop  offset="1" style="stop-color:#F2F2F2"/>
		</linearGradient>
		<circle class="st14" cx="12" cy="13.8" r="0.7"/>
		<g>
			<g class="st15">
				<circle class="st16" cx="12" cy="13.8" r="0.7"/>
			</g>
		</g>
		<g>
			<g>
				
					<linearGradient id="SVGID_5_" gradientUnits="userSpaceOnUse" x1="13.295" y1="10.1331" x2="13.295" y2="10.2883" gradientTransform="matrix(1 0 0 -1 -0.33 22.9823)">
					<stop  offset="0.22" style="stop-color:#BBBDBF"/>
					<stop  offset="0.35" style="stop-color:#C3C5C6"/>
					<stop  offset="0.55" style="stop-color:#D8DADB"/>
					<stop  offset="0.79" style="stop-color:#FCFCFC"/>
					<stop  offset="0.81" style="stop-color:#FFFFFF"/>
					<stop  offset="0.94" style="stop-color:#F7F7F7"/>
					<stop  offset="1" style="stop-color:#F2F2F2"/>
				</linearGradient>
				<path class="st17" d="M13.4,12.7c-0.1,0.1-0.3,0.2-0.5,0.1c-0.2,0-0.4,0-0.5-0.1"/>
			</g>
		</g>
		<g>
			<g>
				
					<linearGradient id="SVGID_6_" gradientUnits="userSpaceOnUse" x1="11.2564" y1="10.1331" x2="11.2564" y2="10.2883" gradientTransform="matrix(1 0 0 -1 -0.33 22.9823)">
					<stop  offset="0.22" style="stop-color:#BBBDBF"/>
					<stop  offset="0.35" style="stop-color:#C3C5C6"/>
					<stop  offset="0.55" style="stop-color:#D8DADB"/>
					<stop  offset="0.79" style="stop-color:#FCFCFC"/>
					<stop  offset="0.81" style="stop-color:#FFFFFF"/>
					<stop  offset="0.94" style="stop-color:#F7F7F7"/>
					<stop  offset="1" style="stop-color:#F2F2F2"/>
				</linearGradient>
				<path class="st18" d="M11.4,12.7c-0.1,0.1-0.3,0.2-0.5,0.1c-0.2,0-0.3,0-0.5-0.1"/>
			</g>
		</g>
		
			<linearGradient id="SVGID_7_" gradientUnits="userSpaceOnUse" x1="11.0609" y1="9.8228" x2="11.0609" y2="9.8228" gradientTransform="matrix(1 0 0 -1 -0.33 22.9823)">
			<stop  offset="0.22" style="stop-color:#BBBDBF"/>
			<stop  offset="0.35" style="stop-color:#C3C5C6"/>
			<stop  offset="0.55" style="stop-color:#D8DADB"/>
			<stop  offset="0.79" style="stop-color:#FCFCFC"/>
			<stop  offset="0.81" style="stop-color:#FFFFFF"/>
			<stop  offset="0.94" style="stop-color:#F7F7F7"/>
			<stop  offset="1" style="stop-color:#F2F2F2"/>
		</linearGradient>
		<path class="st19" d="M10.7,13.2"/>
		
			<linearGradient id="SVGID_8_" gradientUnits="userSpaceOnUse" x1="12.3021" y1="9.7918" x2="12.3021" y2="10.2635" gradientTransform="matrix(1 0 0 -1 -0.33 22.9823)">
			<stop  offset="0.22" style="stop-color:#BBBDBF"/>
			<stop  offset="0.35" style="stop-color:#C3C5C6"/>
			<stop  offset="0.55" style="stop-color:#D8DADB"/>
			<stop  offset="0.79" style="stop-color:#FCFCFC"/>
			<stop  offset="0.81" style="stop-color:#FFFFFF"/>
			<stop  offset="0.94" style="stop-color:#F7F7F7"/>
			<stop  offset="1" style="stop-color:#F2F2F2"/>
		</linearGradient>
		<path class="st20" d="M10.7,12.7v0.5C11.1,13,11.5,13,12,13c0.4,0,0.8,0.1,1.2,0.2v-0.5H10.7z"/>
	</g>
</g>
</svg>
