<?xml version="1.0" encoding="UTF-8"?>
<svg width="300px" height="125px" viewBox="0 0 300 125" version="1.1" xmlns="http://www.w3.org/2000/svg" xmlns:xlink="http://www.w3.org/1999/xlink">
    <!-- Generator: Sketch 57.1 (83088) - https://sketch.com -->
    <title>Artboard</title>
    <desc>Created with Sketch.</desc>
    <g id="Artboard" stroke="none" stroke-width="1" fill="none" fill-rule="evenodd">
        <g id="amazon-logo" transform="translate(27.000000, 32.000000)" fill="#FFFFFF" fill-rule="nonzero">
            <path d="M91.0521542,4.11234264 C88.9305413,1.26792556 85.4582841,0 82.2932551,0 C77.8239557,0 73.6618845,2.21606458 71.8243128,6.9679803 C69.7026998,2.22167488 66.7347605,0 61.9988103,0 C57.3324212,0 53.8717576,2.21606458 52.0225921,6.9679803 L51.8950635,6.9679803 L51.8950635,2.05336617 C51.8486894,1.37452107 51.2574204,0.824712643 50.5212323,0.796661194 L43.4607826,0.796661194 C42.6550334,0.796661194 42,1.39696223 42,2.1487411 L42,39.760126 C42.0521708,40.4333607 42.6318465,40.9551177 43.356441,41 L50.9328019,41 C51.7385511,41 52.3877878,40.3884784 52.3877878,39.6423098 L52.3877878,19.6977286 C52.3877878,15.3497537 52.167511,9.32991242 57.6048687,9.32991242 C62.9842589,9.32991242 62.2828514,15.5012315 62.2828514,19.6977286 L62.2828514,39.6366996 C62.2828514,40.3604269 62.885714,40.9382868 63.6508859,40.9943898 L71.2098566,40.9943898 C72.0271991,40.9943898 72.6706392,40.3828682 72.6706392,39.6366996 L72.6706392,19.6977286 C72.6706392,17.560208 72.6010781,14.3847838 73.3720467,12.4885058 C74.1488121,10.5922277 76.0675384,9.40845648 77.8993136,9.40845648 C80.0962843,9.40845648 81.7889372,10.1209633 82.3512226,12.6455939 C82.7106216,14.1547619 82.5657027,18.1100164 82.5657027,19.6977286 L82.5657027,39.6366996 C82.5657027,40.3604269 83.174362,40.9382868 83.9279404,40.9943898 L91.4927077,40.9943898 C92.2984569,40.9943898 92.9476936,40.3828682 92.9476936,39.6366996 L92.9592872,15.9051724 C92.9592872,11.8713738 93.4462148,7.27654625 91.0521542,4.11234264 Z" id="Path"></path>
            <path d="M191.850979,0 C180.367538,0 174,8.93554451 174,20.4201693 C174,31.838727 180.288551,41 191.850979,41 C202.957715,41 209.999894,32.0699611 209.999894,20.8110649 C210.030057,9.16127299 203.638215,0 191.850979,0 Z M191.850979,33.3912984 C185.629263,33.3912984 185.696068,23.7620518 185.696068,19.2529879 C185.696068,14.7549349 186.072803,7.53162347 191.911739,7.53162347 C194.42716,7.53162347 196.219549,8.53363771 197.100553,11.1047402 C198.145607,14.0557271 198.291428,17.7774943 198.291428,20.8936485 C198.315732,25.628441 198.018012,33.3912984 191.850979,33.3912984 Z" id="Shape"></path>
            <path d="M137.586541,33.7537183 C136.137627,31.9297869 134.603483,30.4574568 134.603483,27.1007638 L134.603483,15.9154496 C134.603483,11.1853142 134.962667,6.83424896 131.096866,3.57095001 C128.046841,0.928447005 122.987817,0 119.122016,0 C111.560875,0 103.104816,2.54361517 101.339333,10.9820447 C101.150608,11.8830229 101.868978,12.3554871 102.52038,12.4873375 L110.22763,13.2344901 C110.946,13.2070213 111.475645,12.5697441 111.615666,11.9214793 C112.267068,9.01527536 114.976173,7.6143642 118.007935,7.6143642 C119.645573,7.6143642 121.502375,8.15824735 122.458172,9.48224575 C123.584429,10.9545759 123.432232,12.976283 123.432232,14.6793515 L123.426144,15.5913172 C118.817622,16.0692751 112.790626,16.3714324 108.474322,18.0854884 C103.488353,20.024789 100,23.9912903 100,29.8146857 C100,37.2697307 105.199045,41 111.88962,41 C117.539168,41 120.643985,39.7968644 125.002903,35.7809193 C126.439642,37.6707758 126.920584,38.5937291 129.562722,40.571486 C130.165422,40.8571621 130.926406,40.8241993 131.449963,40.406673 L131.462139,40.4176604 C133.051074,39.1540935 135.930639,36.8741793 137.550014,35.6545624 C138.189241,35.1766046 138.097923,34.3964894 137.586541,33.7537183 Z M123.426144,22.9035241 C123.426144,25.6998526 123.511374,28.0292108 121.934614,30.5123945 C120.680512,32.5341016 118.665425,33.7701996 116.449439,33.7701996 C113.387238,33.7701996 111.597402,31.6770736 111.597402,28.5730939 C111.597402,22.4585288 117.673102,21.3487873 123.426144,21.3487873 L123.426144,22.9035241 Z" id="Shape"></path>
            <path d="M244.960872,4.43591847 C242.772685,1.19450144 239.344326,0.00560798797 235.856344,0 C230.484256,0 227.41364,2.45069074 225.243339,7.5932157 L225.118129,7.5932157 L225.118129,1.84502804 C224.969071,1.2561893 224.396683,0.818766242 223.722936,0.790726303 L216.502515,0.790726303 C215.709521,0.790726303 215.071548,1.32909315 215,2.01887567 L215.011925,39.6260429 C215.011925,40.3494733 215.626048,40.9383121 216.419042,40.9943921 L224.164151,40.9943921 C225.004845,40.9943921 225.678592,40.3831213 225.690517,39.6260429 L225.690517,19.3924224 C225.690517,16.8520038 225.82765,14.5695527 226.936649,12.2702777 C227.801193,10.4588975 229.536239,9.26439612 231.444196,9.26439612 C236.810323,9.26439612 236.297559,15.2817672 236.297559,19.3924224 L236.297559,39.8111066 C236.357182,40.4448092 236.971305,40.9383121 237.668902,41 L245.48556,41 C246.26663,41 246.892678,40.4672412 247,39.8111066 L247,16.1453973 C247,12.5058132 247,7.45301601 244.960872,4.43591847 Z" id="Path"></path>
            <path d="M169.572537,31.8552397 C164.917766,29.5081997 159.512025,28.8185482 154.373157,28.935344 L168.200931,11.2713645 C169.473235,9.68071649 170.199379,8.68517106 170.199379,7.91765558 L170.199379,3.35149465 C170.199379,2.55060893 169.522886,2 168.660202,2 L142.016292,2 C141.184639,2 140.514352,2.53948551 140.514352,3.35149465 L140.514352,8.68517106 C140.514352,9.48049506 141.184639,10.0255423 142.05353,10.0255423 L155.980605,10.0255423 L139.980605,30.5816091 C139.012413,31.8997334 139,33.3791474 139,34.2467734 L139,39.6583138 C139,40.4369527 139.986811,41.3323874 140.905353,40.8763276 C149.972847,36.5660051 160.846392,36.9942564 169.03879,40.8429573 C170.056633,41.3101406 171,40.3980208 171,39.6193819 L171,33.9241945 C170.906905,33.1622407 170.627618,32.3780402 169.572537,31.8552397 Z" id="Path"></path>
            <path d="M165.509928,46.7966638 C163.983219,44.8752395 150.831795,43.2208408 142.809426,48.9386747 C141.585771,49.8152158 141.785902,51.0284415 143.163942,50.8659041 C147.675453,50.3260477 157.739151,49.1012121 159.523171,51.4231752 C161.312908,53.7509431 157.527585,63.3638703 155.829336,67.6478921 C155.308997,68.9481914 156.418291,69.470633 157.573329,68.4954085 C165.115385,62.12162 167.048073,48.7355031 165.509928,46.7966638 Z" id="Path"></path>
            <path d="M150.878848,53.37598 C134.868841,60.2182959 117.454754,63.5133957 101.607877,63.5133957 C78.1463415,63.5133957 55.4072375,57.0463226 37.037677,46.2815477 C35.435511,45.3317147 34.2411692,46.990991 35.5753366,48.2046665 C52.6049037,63.6892907 75.1109654,73 100.11058,73 C117.949969,73 138.649953,67.3537702 152.947099,56.7531641 C155.306652,54.994214 153.296662,52.3557888 150.878848,53.37598 Z" id="Path"></path>
            <path d="M37.5726453,33.7491962 C36.1184167,31.925509 34.5790029,30.4533762 34.5790029,27.097133 L34.5790029,15.9133173 C34.5790029,11.1838156 34.950166,6.83333333 31.0864202,3.57047159 C28.0319316,0.928322615 22.9816812,0 19.1057661,0 C11.5486447,0 3.11533513,2.54327439 1.33253592,10.9805734 C1.14999675,11.8814309 1.88015342,12.3538317 2.51295586,12.4856645 L10.2404473,13.232717 C10.9462654,13.2052519 11.475629,12.56806 11.6155757,11.9198821 C12.2666321,9.01406753 14.980381,7.61334405 18.0105312,7.61334405 C19.6412145,7.61334405 21.4909446,8.15715434 22.464487,9.48097535 C23.5718911,10.9531083 23.4197752,12.9745445 23.4197752,14.6773848 L23.4197752,15.6002144 C18.8197882,16.0836013 12.7959956,16.3857181 8.47590201,18.0995445 C3.51083666,20.0275991 0,23.9935692 0,29.8161844 C0,37.2702304 5.2084509,41 11.8954691,41 C17.5541833,41 20.6451798,39.7970258 25.0017813,35.7816184 C26.4438407,37.6712219 26.9184426,38.5940514 29.5591759,40.5715434 C30.1554705,40.8571811 30.9099657,40.824223 31.4393292,40.4067525 L31.4636679,40.4177385 C33.045674,39.1543408 35.9237081,36.8747321 37.5543914,35.6552787 C38.1993632,35.1609057 38.0898396,34.391881 37.5726453,33.7491962 Z M23.4197752,22.9004555 C23.4197752,25.6964093 23.5049602,28.0254555 21.9351232,30.5083066 C20.675603,32.5297428 18.6737568,33.7656753 16.4346097,33.7656753 C13.3862056,33.7656753 11.6155757,31.6728296 11.6155757,28.5692658 C11.6155757,22.4555198 17.6819607,21.3459272 23.4197752,21.3459272 L23.4197752,22.9004555 Z" id="Shape"></path>
        </g>
    </g>
</svg>