<?xml version="1.0" encoding="UTF-8"?>
<svg width="300px" height="125px" viewBox="0 0 300 125" version="1.1" xmlns="http://www.w3.org/2000/svg" xmlns:xlink="http://www.w3.org/1999/xlink">
    <!-- Generator: Sketch 57.1 (83088) - https://sketch.com -->
    <title>Artboard</title>
    <desc>Created with Sketch.</desc>
    <g id="Artboard" stroke="none" stroke-width="1" fill="none" fill-rule="evenodd">
        <g id="apple-logo" transform="translate(25.000000, 35.000000)" fill="#FFFFFF" fill-rule="nonzero">
            <g id="XMLID_2_" transform="translate(60.000000, 1.000000)">
                <g id="XMLID_3_" transform="translate(0.861039, 0.000000)">
                    <polygon id="XMLID_4_" points="8.24799642 13.8470866 0.609103381 13.8470866 0.609103381 1.4814617 2.51041124 1.4814617 2.51041124 12.082243 8.24799642 12.082243"></polygon>
                    <path d="M10.4429738,1.75568043 C10.4429738,1.11349299 10.9432568,0.623649147 11.6222955,0.623649147 C12.3013342,0.623649147 12.8027777,1.11349299 12.8027777,1.75568043 C12.8027777,2.38849299 12.3013339,2.87833659 11.6222955,2.87833659 C10.943257,2.87833659 10.4429738,2.38849275 10.4429738,1.75568043 Z M10.7145892,4.51427403 L12.5311624,4.51427403 L12.5311624,13.8470866 L10.7145892,13.8470866 L10.7145892,4.51427403 Z" id="XMLID_6_"></path>
                    <path d="M18.8444793,4.3338053 C20.9245426,4.3338053 22.2826197,5.31114914 22.4602144,6.95646146 L20.7121253,6.95646146 C20.5426559,6.27208658 19.8798677,5.8338053 18.8444793,5.8338053 C17.8265018,5.8338053 17.0534426,6.32364914 17.0534426,7.05021147 C17.0534426,7.60802403 17.5200641,7.95958635 18.5217909,8.19161762 L20.0586235,8.55021147 C21.8159983,8.96271146 22.6389697,9.72443019 22.6389697,11.095524 C22.6389697,12.8533366 21.0174026,14.0275553 18.8108175,14.0275553 C16.6123578,14.0275553 15.1776713,13.0244302 15.0163272,11.3697427 L16.8410254,11.3697427 C17.0708538,12.089274 17.7498922,12.5345866 18.8526045,12.5345866 C19.990139,12.5345866 20.7968601,12.0213053 20.7968601,11.2759928 C20.7968601,10.7181802 20.3639004,10.3595866 19.4387829,10.1369302 L17.8265017,9.75958635 C16.0691267,9.34005507 15.2542806,8.54318018 15.2542806,7.15333635 C15.2542809,5.50099274 16.7562911,4.3338053 18.8444793,4.3338053 Z" id="XMLID_9_"></path>
                    <path d="M27.4839203,2.19161787 L27.4839203,4.55646171 L29.4862316,4.55646171 L29.4862316,6.10802427 L27.4839203,6.10802427 L27.4839203,10.9080243 C27.4839203,11.8830243 27.8820756,12.3119304 28.7909425,12.3119304 C29.0706832,12.3119304 29.2320273,12.2955243 29.4862316,12.269743 L29.4862316,13.8025555 C29.1890797,13.8541181 28.8501409,13.8986494 28.4937906,13.8986494 C26.4648003,13.8986494 25.6580794,13.1791181 25.6580794,11.3791181 L25.6580794,6.10802403 L24.189731,6.10802403 L24.189731,4.55646171 L25.6580794,4.55646171 L25.6580794,2.19161787 L27.4839203,2.19161787 Z" id="XMLID_11_"></path>
                    <path d="M39.5986821,11.3275553 C39.1819729,12.9986491 37.7054996,14.0275553 35.5917745,14.0275553 C32.9441048,14.0275553 31.3225376,12.1923991 31.3225376,9.21114914 C31.3225376,6.22755531 32.9777666,4.3338053 35.5836494,4.3338053 C38.1547098,4.3338053 39.7089536,6.10802403 39.7089536,9.04005531 L39.7089536,9.68224274 L33.1808977,9.68224274 L33.1808977,9.78536786 C33.2400958,11.4213053 34.1826246,12.4572427 35.6428475,12.4572427 C36.7467205,12.4572427 37.5012077,12.0564615 37.8413073,11.3275553 L39.5986821,11.3275553 Z M33.1808974,8.31818042 L37.8494323,8.31818042 C37.8076454,6.85333658 36.9243149,5.90177427 35.5743633,5.90177427 C34.2255723,5.90177427 33.2830436,6.86271171 33.1808974,8.31818042 Z" id="XMLID_13_"></path>
                    <path d="M42.1418844,4.51427403 L43.8980985,4.51427403 L43.8980985,5.99786787 L44.0339062,5.99786787 C44.4842769,4.95958659 45.4012692,4.3338053 46.7930079,4.3338053 C48.85566,4.3338053 49.9931944,5.58536787 49.9931944,7.80489915 L49.9931944,13.8470868 L48.1684962,13.8470868 L48.1684962,8.26896171 C48.1684962,6.76896171 47.5231193,6.02364915 46.1731676,6.02364915 C44.8243766,6.02364915 43.9665825,6.93068043 43.9665825,8.38849298 L43.9665825,13.8470868 L42.1418844,13.8470868 L42.1418844,4.51427403 Z" id="XMLID_17_"></path>
                    <path d="M57.3465433,9.17599274 C57.3465433,6.16896146 59.0098975,4.3338053 61.7086402,4.3338053 C64.4004185,4.3338053 66.0637725,6.16896146 66.0637725,9.17599274 C66.0637725,12.201774 64.4085435,14.0275553 61.7086402,14.0275553 C59.0017722,14.0275553 57.3465433,12.201774 57.3465433,9.17599274 Z M64.1880015,9.17599274 C64.1880015,7.15333659 63.2884205,5.97208658 61.7086402,5.97208658 C60.1218955,5.97208658 59.2304398,7.15333659 59.2304398,9.17599274 C59.2304398,11.2150553 60.1218955,12.389274 61.7086402,12.389274 C63.2884205,12.389274 64.1880015,11.208024 64.1880015,9.17599274 Z" id="XMLID_19_"></path>
                    <path d="M68.4955429,4.51427403 L70.2517572,4.51427403 L70.2517572,5.99786787 L70.3875649,5.99786787 C70.8379357,4.95958659 71.7549279,4.3338053 73.1466665,4.3338053 C75.2093186,4.3338053 76.3468532,5.58536787 76.3468532,7.80489915 L76.3468532,13.8470868 L74.5221549,13.8470868 L74.5221549,8.26896171 C74.5221549,6.76896171 73.8767781,6.02364915 72.5268262,6.02364915 C71.1780352,6.02364915 70.3202412,6.93068043 70.3202412,8.38849298 L70.3202412,13.8470868 L68.4955429,13.8470868 L68.4955429,4.51427403 L68.4955429,4.51427403 Z" id="XMLID_22_"></path>
                </g>
                <g id="XMLID_450_" transform="translate(0.000000, 21.266666)">
                    <g id="XMLID_25_">
                        <path d="M16.210501,18.877295 L6.63431692,18.877295 L4.33603267,25.7327638 L0.279212774,25.7327638 L9.35047089,0.3687012 L13.5639918,0.3687012 L22.6352499,25.7327638 L18.5087852,25.7327638 L16.210501,18.877295 Z M7.62675764,15.7132324 L15.21806,15.7132324 L11.4746427,4.5874512 L11.3701752,4.5874512 L7.62675764,15.7132324 Z" id="XMLID_26_"></path>
                        <path d="M42.2054881,16.4866699 C42.2054881,22.2358886 39.1585204,25.9272951 34.5619521,25.9272951 C31.9502655,25.9272951 29.8783276,24.7483888 28.7988304,22.6929202 L28.7117741,22.6929202 L28.7117741,31.8499515 L24.9509454,31.8499515 L24.9509454,7.24057608 L28.5898952,7.24057608 L28.5898952,10.3179199 L28.6595403,10.3179199 C29.7042149,8.33041992 31.9328541,7.04838864 34.492307,7.04838864 C39.1411091,7.04838864 42.2054881,10.7562012 42.2054881,16.4866699 Z M38.3401919,16.4866699 C38.3401919,12.7437012 36.4249549,10.2827638 33.4998661,10.2827638 C30.6270109,10.2827638 28.6943627,12.7952638 28.6943627,16.4866699 C28.6943627,20.2132325 30.6270109,22.709326 33.4998661,22.709326 C36.4249549,22.709326 38.3401919,20.2671386 38.3401919,16.4866699 Z" id="XMLID_29_"></path>
                        <path d="M62.3502972,16.4866699 C62.3502972,22.2358886 59.3033296,25.9272951 54.7067613,25.9272951 C52.0950747,25.9272951 50.0231367,24.7483888 48.9436396,22.6929202 L48.8565833,22.6929202 L48.8565833,31.8499515 L45.0957548,31.8499515 L45.0957548,7.24057608 L48.7347047,7.24057608 L48.7347047,10.3179199 L48.8043498,10.3179199 C49.8490243,8.33041992 52.0776635,7.04838864 54.6371165,7.04838864 C59.2859182,7.04838864 62.3502972,10.7562012 62.3502972,16.4866699 Z M58.4850011,16.4866699 C58.4850011,12.7437012 56.5697641,10.2827638 53.6446753,10.2827638 C50.77182,10.2827638 48.8391718,12.7952638 48.8391718,16.4866699 C48.8391718,20.2132325 50.77182,22.709326 53.6446753,22.709326 C56.5697641,22.709326 58.4850011,20.2671386 58.4850011,16.4866699 Z" id="XMLID_40_"></path>
                        <polygon id="XMLID_44_" points="65.3798535 0.3687012 69.1406821 0.3687012 69.1406821 25.7327638 65.3798535 25.7327638"></polygon>
                        <path d="M88.7109205,20.3022951 C88.2059945,23.6585451 84.9675031,25.9624513 80.823627,25.9624513 C75.4957864,25.9624513 72.18765,22.3577637 72.18765,16.5757324 C72.18765,10.7749512 75.5131977,7.01323249 80.6669257,7.01323249 C85.7335978,7.01323249 88.9198554,10.5288576 88.9198554,16.1351074 L88.9198554,17.4358887 L75.9833013,17.4358887 L75.9833013,17.665576 C75.9833013,20.8296386 77.9507718,22.9038573 80.9106832,22.9038573 C83.0000323,22.9038573 84.6366893,21.9007322 85.1416156,20.3022948 L88.7109205,20.3022948 L88.7109205,20.3022951 Z M76.0007124,14.7827637 L85.1590268,14.7827637 C85.0719705,11.9515138 83.2786125,10.0882325 80.6669259,10.0882325 C78.0726504,10.0882325 76.1922361,11.9866699 76.0007124,14.7827637 Z" id="XMLID_46_"></path>
                        <polygon id="XMLID_49_" points="121.358163 25.7327638 121.358163 7.06479505 121.235124 7.06479505 113.662393 25.5405763 110.772127 25.5405763 103.180825 7.06479505 103.057785 7.06479505 103.057785 25.7327638 99.5058916 25.7327638 99.5058916 0.3687012 104.016564 0.3687012 112.146455 20.3890137 112.285745 20.3890137 120.399384 0.3687012 124.926308 0.3687012 124.926308 25.7327638"></polygon>
                        <path d="M144.95388,25.7327638 L141.348593,25.7327638 L141.348593,22.552295 L141.262679,22.552295 C140.218023,24.7671388 138.388681,25.9437012 135.586632,25.9437012 C131.598296,25.9437012 129.160722,23.3421387 129.160722,19.1069825 L129.160722,7.24057632 L132.92155,7.24057632 L132.92155,18.3687015 C132.92155,21.1812015 134.244805,22.6741701 136.840241,22.6741701 C139.556395,22.6741701 141.193052,20.7757327 141.193052,17.8929202 L141.193052,7.24057632 L144.95388,7.24057632 L144.95388,25.7327638 L144.95388,25.7327638 Z" id="XMLID_51_"></path>
                        <path d="M155.646706,7.02963863 C159.704687,7.02963863 162.611203,9.29838864 162.699421,12.5679199 L159.163778,12.5679199 C159.008237,10.9319825 157.631588,9.9312012 155.542239,9.9312012 C153.506284,9.9312012 152.148207,10.8804199 152.148207,12.3218263 C152.148207,13.4280763 153.053592,14.1663576 154.950256,14.6421389 L158.033208,15.3616702 C161.724391,16.2593263 163.11729,17.6304202 163.11729,20.3374514 C163.11729,23.6772952 159.983249,25.9624514 155.507416,25.9624514 C151.189428,25.9624514 148.28291,23.7288576 148.00433,20.3538577 L151.730337,20.3538577 C151.990345,22.1304201 153.401817,23.0796389 155.681528,23.0796389 C157.928739,23.0796389 159.337889,22.1468263 159.337889,20.6702641 C159.337889,19.5288579 158.64144,18.9124515 156.726203,18.4202639 L153.45289,17.6116701 C150.144754,16.8030763 148.473273,15.0991701 148.473273,12.532764 C148.473274,9.26323248 151.382113,7.02963863 155.646706,7.02963863 Z" id="XMLID_53_"></path>
                        <path d="M166.044701,2.37260737 C166.044701,1.15854479 167.019731,0.19291992 168.222268,0.19291992 C169.441054,0.19291992 170.416084,1.15854504 170.416084,2.37260737 C170.416084,3.56791991 169.441054,4.5335448 168.222268,4.5335448 C167.019731,4.5335448 166.044701,3.56791991 166.044701,2.37260737 Z M166.341853,7.24057608 L170.102681,7.24057608 L170.102681,25.7327635 L166.341853,25.7327635 L166.341853,7.24057608 Z" id="XMLID_55_"></path>
                        <path d="M186.299782,13.6038573 C185.970129,11.6538574 184.45419,10.1937012 181.981794,10.1937012 C179.091527,10.1937012 177.17629,12.6382325 177.17629,16.4866699 C177.17629,20.4241699 179.110098,22.7983887 182.016616,22.7983887 C184.349704,22.7983887 185.881911,21.6194824 186.299782,19.4749512 L189.92132,19.4749512 C189.50345,23.3608887 186.422821,25.9624513 181.981792,25.9624513 C176.75842,25.9624513 173.345815,22.3577637 173.345815,16.4866699 C173.345815,10.739795 176.75842,7.01323249 181.94697,7.01323249 C186.648007,7.01323249 189.573095,10.0015138 189.886497,13.6038576 L186.299782,13.6038576 L186.299782,13.6038573 Z" id="XMLID_58_"></path>
                    </g>
                </g>
            </g>
            <path d="M50.9715599,6.66306319 C50.4662389,5.42845492 49.2997143,3.69027686 47.6458156,2.4656514 C46.690793,1.75857178 45.5506694,1.08258206 43.9847231,0.636343228 C42.3152509,0.160725799 40.2591123,0 37.7000259,0 L14.3001224,0 C11.741036,0 9.68489738,0.160725799 8.01542508,0.636343228 C6.44933071,1.08258206 5.30935521,1.75857178 4.3543327,2.4656514 C2.70043385,3.69027686 1.53390934,5.42845492 1.02858836,6.66306319 C0.0103823857,9.15039204 0,11.9727207 0,13.7499751 L0,36.2500251 C0,38.0272793 0.0103823857,40.8496082 1.02858836,43.3369368 C1.53390934,44.5715451 2.70043385,46.3097232 4.3543327,47.5343486 C5.30935521,48.2414282 6.44933071,48.9174179 8.01542508,49.3636568 C9.68489738,49.839274 11.741036,50 14.3001224,50 L37.7000259,50 C40.2591123,50 42.3152509,49.8392742 43.9847231,49.3636568 C45.5506694,48.9174179 46.690793,48.2414282 47.6458156,47.5343486 C49.2997143,46.3097232 50.4662389,44.5715451 50.9715599,43.3369368 C51.9897658,40.8496079 52,38.0272793 52,36.2500251 L52,13.7499751 C52,11.9727207 51.9897658,9.15039204 50.9715599,6.66306319 Z M37.9340724,34.3894843 C37.7996958,35.0047207 37.5545255,35.5835904 37.1766103,36.1048442 C36.7998814,36.6245292 36.3168083,37.0503742 35.7539398,37.3699719 C35.183952,37.6935629 34.5862288,37.8776775 33.9478662,38.0014664 C32.7496015,38.2337844 31.9295489,38.2862663 31.1593311,38.1372349 C30.4162559,37.9936226 29.7864957,37.6651828 29.2831029,37.2212258 C28.5369128,36.5633479 28.0717862,35.6745782 27.9701881,34.7457342 C27.8510886,33.6571625 28.2281138,32.4942888 29.0781268,31.6376071 C29.5070638,31.2054871 30.0459047,30.863499 30.7651008,30.5950996 C31.5178168,30.3142929 32.3485485,30.1465789 33.6254219,29.8990013 C33.9616598,29.8338267 34.298046,29.7686522 34.6344323,29.7033351 C35.0768663,29.6177668 35.4561167,29.5088096 35.7619493,29.1494229 C36.0701551,28.7873261 36.0750495,28.3534949 36.0750495,27.9166685 L36.0753457,16.8978914 C36.0753457,16.055186 35.6823018,15.8255776 34.8453407,15.9801711 C34.2471725,16.0924083 21.3999775,18.5837301 21.3999775,18.5837301 C20.6752937,18.7520143 20.4206309,18.9797689 20.4206309,19.8442942 L20.4209277,35.9896119 C20.4209277,36.622675 20.3865176,37.1842883 20.2479884,37.8183497 C20.1134635,38.4337286 19.8682931,39.0125983 19.4903778,39.5338521 C19.1136489,40.0535371 18.6305757,40.4793822 18.0677072,40.7988372 C17.4978678,41.1224282 16.8999962,41.3158125 16.2616337,41.4396015 C15.063369,41.6719196 14.2434646,41.7244014 13.4730986,41.57537 C12.7301715,41.4319003 12.1004114,41.0941908 11.5968704,40.6502336 C10.8508287,39.9923557 10.4161072,39.103586 10.3145091,38.1747419 C10.1954094,37.0861703 10.5418812,35.9232965 11.3920425,35.0666149 C11.8209795,34.6343521 12.3596721,34.2925068 13.078868,34.0241074 C13.8317326,33.7433007 14.6623156,33.5755867 15.9391891,33.328009 C16.275427,33.2628344 16.6119617,33.19766 16.9481996,33.1323429 C17.3906336,33.0466319 17.7700321,32.9378174 18.0757165,32.5784307 C18.3816974,32.2190436 18.4167004,31.7882071 18.4167004,31.3542331 C18.4167004,27.9377749 18.4167004,12.7603775 18.4167004,12.7603775 C18.4167004,12.5098048 18.4393932,12.3430892 18.4525935,12.2592324 C18.5144425,11.8678998 18.6778893,11.5321869 18.9725982,11.2943068 C19.2174718,11.0965013 19.5326487,10.9603052 19.9360748,10.8777316 L19.9420074,10.8765907 L35.3973821,7.87827642 C35.531462,7.85203539 36.648448,7.66136064 36.7740738,7.65080721 C37.6094032,7.58149683 38.0785344,8.10888296 38.0785344,8.96485147 L38.0792762,32.5520471 C38.0792762,33.18511 38.0726018,33.7552801 37.9340724,34.3894843 Z" id="XMLID_24_"></path>
        </g>
    </g>
</svg>