<?xml version="1.0" encoding="UTF-8"?>
<svg width="300px" height="125px" viewBox="0 0 300 125" version="1.1" xmlns="http://www.w3.org/2000/svg" xmlns:xlink="http://www.w3.org/1999/xlink">
    <!-- Generator: Sketch 57.1 (83088) - https://sketch.com -->
    <title>Artboard</title>
    <desc>Created with Sketch.</desc>
    <g id="Artboard" stroke="none" stroke-width="1" fill="none" fill-rule="evenodd">
        <g id="Google_Play_Store_badge_EN" transform="translate(25.000000, 33.000000)" fill-rule="nonzero">
            <path d="M132.895675,14 C130.947678,14 129.305564,13.3143078 128.0069,11.9645199 C126.718968,10.652526 125.999872,8.84381026 126.032071,6.99730042 C126.032071,5.0266101 126.697502,3.35827227 128.0069,2.03548014 C129.300198,0.685692248 130.942311,0 132.890309,0 C134.81684,0 136.458954,0.685692248 137.779084,2.03548014 C139.088481,3.40146548 139.753913,5.06980332 139.753913,6.99730042 C139.732447,8.9733899 139.067016,10.6417277 137.779084,11.9591207 C136.485785,13.3197069 134.843672,14 132.895675,14 Z M74.9333674,14 C73.0283013,14 71.3754552,13.3251061 70.0231266,11.9915156 C68.6815307,10.6633243 68,8.9841882 68,7.00269958 C68,5.02121095 68.6815307,3.34207482 70.0231266,2.01388353 C71.3486233,0.680293097 73.0014694,0.00539915156 74.9333674,0.00539915156 C75.8778509,0.00539915156 76.7955025,0.194369456 77.6755893,0.577709217 C78.5395771,0.950250675 79.2425733,1.45777092 79.7631125,2.07867335 L79.8919057,2.23524875 L78.4376158,3.67142306 L78.2873571,3.49325106 C77.4663004,2.51060548 76.3661918,2.03008099 74.9119019,2.03008099 C73.6132371,2.03008099 72.4809302,2.49440802 71.5471795,3.41226379 C70.6080624,4.3355187 70.1304542,5.54492865 70.1304542,7.00809873 C70.1304542,8.4712688 70.6080624,9.68067875 71.5471795,10.6039337 C72.4809302,11.5217894 73.6132371,11.9861165 74.9119019,11.9861165 C76.2964288,11.9861165 77.460934,11.5217894 78.3678528,10.6039337 C78.9044912,10.0640185 79.2372069,9.30813729 79.3552674,8.35248747 L74.6918802,8.35248747 L74.6918802,6.33320478 L81.3569284,6.33320478 L81.3837603,6.51677594 C81.4320578,6.85692248 81.4803552,7.20786734 81.4803552,7.53181643 C81.4803552,9.39452372 80.9222513,10.900887 79.8167763,12.0131122 C78.5610426,13.3305052 76.9189293,14 74.9333674,14 Z M152,13.713845 L149.944675,13.713845 L143.649907,3.57963749 L143.703571,5.40455071 L143.703571,13.7084458 L141.648246,13.7084458 L141.648246,0.291554184 L143.993356,0.291554184 L144.057753,0.394138064 L149.976873,9.93983803 L149.92321,8.12032395 L149.92321,0.291554184 L152,0.291554184 L152,13.713845 L152,13.713845 Z M117.451223,13.713845 L115.369067,13.713845 L115.369067,2.31083687 L111.757491,2.31083687 L111.757491,0.291554184 L121.057433,0.291554184 L121.057433,2.31083687 L117.445857,2.31083687 L117.445857,13.713845 L117.451223,13.713845 Z M110.061713,13.713845 L107.984923,13.713845 L107.984923,0.291554184 L110.061713,0.291554184 L110.061713,13.713845 Z M98.3898294,13.713845 L96.313039,13.713845 L96.313039,2.31083687 L92.701463,2.31083687 L92.701463,0.291554184 L102.001405,0.291554184 L102.001405,2.31083687 L98.3898294,2.31083687 L98.3898294,13.713845 Z M91.386699,13.6922484 L83.422986,13.6922484 L83.422986,0.291554184 L91.386699,0.291554184 L91.386699,2.31083687 L85.5051428,2.31083687 L85.5051428,5.99305823 L90.812496,5.99305823 L90.812496,7.99074431 L85.5051428,7.99074431 L85.5051428,11.6729657 L91.386699,11.6729657 L91.386699,13.6922484 Z M129.530953,10.5769379 C130.459337,11.5109911 131.586277,11.9807173 132.895675,11.9807173 C134.242637,11.9807173 135.342746,11.5217894 136.260397,10.5769379 C137.172683,9.65908214 137.634192,8.45507135 137.634192,7.00269958 C137.634192,5.55032781 137.172683,4.34091786 136.265764,3.42846124 C135.337379,2.49440802 134.205073,2.02468184 132.901041,2.02468184 C131.554079,2.02468184 130.45397,2.48360972 129.541685,3.42846124 C128.6294,4.34631701 128.167891,5.55032781 128.167891,7.00269958 C128.167891,8.45507135 128.624034,9.6644813 129.530953,10.5769379 L129.530953,10.5769379 Z" id="Shape" fill="#FFFFFF"></path>
            <path d="M125.449283,32.2588201 C120.360416,32.2588201 116.235471,36.1424389 116.235471,41.4993412 C116.235471,46.8074952 120.387341,50.7398624 125.449283,50.7398624 C130.538151,50.7398624 134.663096,46.8291612 134.663096,41.4993412 C134.663096,36.1424389 130.538151,32.2588201 125.449283,32.2588201 Z M125.449283,47.0783194 C122.665215,47.0783194 120.26887,44.7600644 120.26887,41.4776753 C120.26887,38.1465378 122.6706,35.8770312 125.449283,35.8770312 C128.233352,35.8770312 130.629715,38.1465378 130.629715,41.4776753 C130.635082,44.7817303 128.233352,47.0783194 125.449283,47.0783194 Z M105.346909,32.2588201 C100.258041,32.2588201 96.133096,36.1424389 96.133096,41.4993412 C96.133096,46.8074952 100.284966,50.7398624 105.346909,50.7398624 C110.435777,50.7398624 114.560722,46.8291612 114.560722,41.4993412 C114.560722,36.1424389 110.430392,32.2588201 105.346909,32.2588201 Z M105.346909,47.0783194 C102.56284,47.0783194 100.166495,44.7600644 100.166495,41.4776753 C100.166495,38.1465378 102.568225,35.8770312 105.346909,35.8770312 C108.130977,35.8770312 110.527322,38.1465378 110.527322,41.4776753 C110.527322,44.7817303 108.130977,47.0783194 105.346909,47.0783194 Z M81.4265368,35.0808081 L81.4265368,38.9915093 L90.7588206,38.9915093 C90.4734132,41.1851852 89.7518171,42.8047138 88.6478828,43.915093 C87.2800812,45.2908798 85.1691434,46.7858293 81.448077,46.7858293 C75.7130036,46.7858293 71.2272607,42.1276533 71.2272607,36.3590982 C71.2272607,30.5905431 75.7130036,25.9323671 81.448077,25.9323671 C84.5444781,25.9323671 86.8008122,27.1619089 88.4755613,28.7326892 L91.2327046,25.9594496 C88.9063649,23.7170253 85.8099638,22 81.4696172,22 C73.6020657,22 67,28.4456156 67,36.3374323 C67,44.2509149 73.5966807,50.6748646 81.4696172,50.6748646 C85.718418,50.6748646 88.9063649,49.2774118 91.4265662,46.6450007 C93.9952329,44.061338 94.8083748,40.4160445 94.8083748,37.4748939 C94.8083748,36.5595081 94.7383692,35.7362026 94.592973,35.0374762 L81.4211518,35.0374762 C81.4265368,35.0320597 81.4265368,35.0808081 81.4265368,35.0808081 Z M179.267428,38.1248719 C178.497366,36.0503587 176.171027,32.2371542 171.399876,32.2371542 C166.671806,32.2371542 162.740723,35.9799444 162.740723,41.4776753 C162.740723,46.6666667 166.628726,50.7181965 171.857605,50.7181965 C176.057941,50.7181965 178.502751,48.1345337 179.509755,46.6179183 L176.391814,44.5163226 C175.357885,46.0600205 173.920078,47.0729029 171.879145,47.0729029 C169.816673,47.0729029 168.373481,46.1304348 167.414943,44.2725809 L179.698231,39.1540038 C179.698231,39.1594203 179.267428,38.1248719 179.267428,38.1248719 Z M166.741812,41.2122676 C166.644881,37.6428049 169.498955,35.8282828 171.539888,35.8282828 C173.150016,35.8282828 174.490893,36.6245059 174.948621,37.7836334 L166.741812,41.2122676 Z M156.763323,50.1657151 L160.796722,50.1657151 L160.796722,23.0182989 L156.763323,23.0182989 L156.763323,50.1657151 Z M150.139717,34.3116674 L149.994321,34.3116674 C149.084248,33.2229542 147.355648,32.2371542 145.14778,32.2371542 C140.565106,32.2371542 136.34323,36.2941004 136.34323,41.5047577 C136.34323,46.6937491 140.543566,50.701947 145.14778,50.701947 C147.328723,50.701947 149.084248,49.7107305 149.994321,48.6003513 L150.139717,48.6003513 L150.139717,49.9273898 C150.139717,53.4535207 148.265721,55.3547065 145.244711,55.3547065 C142.772975,55.3547065 141.238237,53.5672669 140.613571,52.0723174 L137.107907,53.5456009 C138.11491,55.9830186 140.802048,59 145.239326,59 C149.967395,59 153.973869,56.1996779 153.973869,49.369492 L153.973869,32.7896355 L150.161257,32.7896355 L150.161257,34.3116674 C150.166642,34.3116674 150.139717,34.3116674 150.139717,34.3116674 Z M145.508578,47.0783194 C142.724509,47.0783194 140.39817,44.7383985 140.39817,41.5047577 C140.39817,38.2440345 142.724509,35.8824477 145.508578,35.8824477 C148.265721,35.8824477 150.403584,38.271117 150.403584,41.5047577 C150.430509,44.7383985 148.271106,47.0783194 145.508578,47.0783194 Z M198.152782,23.0182989 L188.508166,23.0182989 L188.508166,50.1657151 L192.541565,50.1657151 L192.541565,39.8852291 L198.158167,39.8852291 C202.62237,39.8852291 207.011182,36.6299224 207.011182,31.462597 C207.011182,26.2952716 202.638525,23.0182989 198.152782,23.0182989 Z M198.271253,36.0936905 L192.53618,36.0936905 L192.53618,26.7773386 L198.271253,26.7773386 C201.292264,26.7773386 202.999323,29.2851705 202.999323,31.4355146 C202.999323,33.5641927 201.270724,36.0936905 198.271253,36.0936905 Z M223.177089,32.2100717 C220.247624,32.2100717 217.226613,33.5154443 215.977283,36.3590982 L219.552953,37.8540477 C220.323014,36.3590982 221.733896,35.8499488 223.225554,35.8499488 C225.314952,35.8499488 227.425889,37.106573 227.474355,39.3489972 L227.474355,39.6360709 C226.752759,39.2244181 225.169555,38.596106 223.274019,38.596106 C219.412942,38.596106 215.498014,40.7193676 215.498014,44.7004831 C215.498014,48.3457766 218.66442,50.6856976 222.191625,50.6856976 C224.900303,50.6856976 226.391961,49.4561558 227.323574,48.0316206 L227.46897,48.0316206 L227.46897,50.1332162 L231.356973,50.1332162 L231.356973,39.7335676 C231.356973,34.8912312 227.781302,32.2100717 223.177089,32.2100717 Z M222.670894,47.0783194 C221.351558,47.0783194 219.504488,46.4283414 219.504488,44.7600644 C219.504488,42.6584687 221.809287,41.8622456 223.774829,41.8622456 C225.551894,41.8622456 226.391961,42.246816 227.44743,42.7776314 C227.156637,45.215049 225.11032,47.0566535 222.670894,47.0783194 Z M245.541182,32.7896355 L240.910043,44.565071 L240.764647,44.565071 L235.966572,32.7896355 L231.626225,32.7896355 L238.826031,49.2503294 L234.722626,58.3987703 L238.922961,58.3987703 L250,32.7896355 C250,32.7896355 245.541182,32.7896355 245.541182,32.7896355 Z M209.235206,50.1657151 L213.268605,50.1657151 L213.268605,23.0182989 L209.235206,23.0182989 L209.235206,50.1657151 Z" id="Shape" fill="#FFFFFF"></path>
            <path d="M0.988044736,2.1451035 C0.361743155,2.81687898 0,3.84335191 0,5.18690287 L0,52.8399682 C0,54.1835191 0.361743155,55.209992 1.00964134,55.8548965 L1.17701504,56 L28,29.3009554 L28,28.7044188 L1.15541843,2 C1.15541843,2 0.988044736,2.1451035 0.988044736,2.1451035 Z" id="Path" fill="#F2F2F2"></path>
            <path d="M36.9485118,38 L28,28.8212828 L28,28.1787172 L36.9485118,19 L37.1429273,19.1218659 L47.7277693,25.2927114 C50.7574102,27.0431487 50.7574102,29.9346939 47.7277693,31.7072886 L37.1429273,37.8781341 C37.1429273,37.8781341 36.9485118,38 36.9485118,38 Z" id="Path" fill="#F2F2F2"></path>
            <path d="M37,37.1900179 L27.8924088,28 L1,55.1357941 C1.98445906,56.19973 3.63598326,56.3191514 5.48117155,55.2823567 L37,37.1900179" id="Path" fill="#F2F2F2"></path>
            <path d="M37,18.8046159 L5.48117155,0.728869678 C3.63598326,-0.33568749 1.9790795,-0.189039309 1,0.87551786 L27.8924088,28 L37,18.8046159 Z" id="Path" fill="#F2F2F2"></path>
            <path d="M36.7848177,37 L5.48117155,54.9492864 C3.7328153,55.9645666 2.17274357,55.8939856 1.16676629,54.9710036 L1,55.1393121 L1.16676629,55.2859033 C2.17274357,56.2034561 3.7328153,56.2794664 5.48117155,55.2641861 L37,37.195455 C37,37.195455 36.7848177,37 36.7848177,37 Z" id="Path" fill="#000000" opacity="0.2"></path>
            <path d="M47.7714286,31.7696397 L37,37.8086237 L37.1937888,38 L47.7445135,32.0779681 C49.2571429,31.227407 50,30.1110455 50,29 C49.9084886,30.0206734 49.1387164,30.9881867 47.7714286,31.7696397 Z" id="Path" fill="#000000" opacity="0.12"></path>
            <path d="M5.48951805,1.05302201 L47.7361141,25.1711917 C49.1084936,25.9476209 49.8811325,26.9629513 50,28 C50,26.8652189 49.2543765,25.7250083 47.7361141,24.8562764 L5.48951805,0.738106693 C2.45839637,-1.0047867 0,0.450339247 0,3.93069647 L0,4.24561179 C0,0.759824991 2.45839637,-0.668153089 5.48951805,1.05302201 Z" id="Path" fill="#FFFFFF" opacity="0.25"></path>
        </g>
    </g>
</svg>