<?xml version="1.0" encoding="UTF-8"?>
<svg width="300px" height="125px" viewBox="0 0 300 125" version="1.1" xmlns="http://www.w3.org/2000/svg" xmlns:xlink="http://www.w3.org/1999/xlink">
    <!-- Generator: Sketch 57.1 (83088) - https://sketch.com -->
    <title>Artboard</title>
    <desc>Created with Sketch.</desc>
    <g id="Artboard" stroke="none" stroke-width="1" fill="none" fill-rule="evenodd">
        <g id="tidal-logo" transform="translate(72.000000, 25.000000)" fill="#FFFFFF" fill-rule="nonzero">
            <path d="M64.0748796,0 L64.1607708,0 C64.8159065,0.752475245 65.556504,1.41895332 66.25437,2.13917963 L70.9998625,6.89052331 L70.9998625,6.97652052 C68.7024861,9.26619514 66.4154163,11.5773691 64.1178252,13.8670438 C61.8094976,11.5666195 59.5119064,9.25544554 57.2035787,6.9550212 C57.321894,6.72927863 57.5471438,6.5787836 57.7189263,6.3960396 C59.8339986,4.25685996 61.9812801,2.14992927 64.0748796,0 Z M77.9248454,0 L78.0107365,0 C78.0753698,0.0967468171 78.1395732,0.182743987 78.2254643,0.26874116 C80.4479008,2.47241866 82.638343,4.70834511 84.8820373,6.90127297 C84.8283552,7.03026874 84.7102545,7.11626588 84.6136269,7.21301268 C82.3914056,9.42743988 80.179491,11.6526167 77.9570544,13.8670438 C75.6379903,11.5773691 73.3618723,9.24469589 71.0320716,6.96577086 C73.2867171,4.61159829 75.6594634,2.34342291 77.9248454,0 Z M91.7748106,0 L91.8607017,0 C92.2901585,0.515983026 92.7947692,0.956718525 93.256435,1.44045261 C94.9957332,3.18189532 96.724509,4.91258838 98.4635927,6.65403108 C98.5496984,6.75077795 98.6892716,6.83677508 98.7212666,6.97652052 C96.3914659,9.24469589 94.1368203,11.5988685 91.7962837,13.8670438 L85.1933928,7.25601131 C85.0860292,7.1377652 84.9464554,7.05176799 84.8927733,6.90127297 C86.0630422,5.76181045 87.2011009,4.590099 88.3606333,3.43988684 C89.4986926,2.28967468 90.6582244,1.17171145 91.7748106,0 Z M71.1286992,20.6930693 C73.3940813,18.4248938 75.6701993,16.1567185 77.9355814,13.8777934 L78.0319944,13.920792 C80.308113,16.2104667 82.584231,18.5001413 84.8818227,20.7683168 C84.8068822,20.9403111 84.6458365,21.037058 84.5275211,21.1768033 C82.8743292,22.8214993 81.2207074,24.4876944 79.5673008,26.1323903 C79.0304805,26.6483734 78.5151326,27.2288542 77.967791,27.7125884 C77.1840333,27.0031116 76.4646936,26.2076378 75.7021943,25.4766619 C74.1563659,23.9287128 72.6210601,22.3807637 71.0642806,20.8435643 C71.0857536,20.8005657 71.1072267,20.7360678 71.1286992,20.6930693 Z M0,50.5125883 L20.6568478,50.5125883 C20.6675843,52.1678188 20.6675843,53.8234793 20.6568478,55.4681752 L13.2165176,55.4681752 L13.2165176,75.0325313 C13.2057812,75.3550211 13.2379904,75.6775102 13.1735719,76 L7.42959397,76 C7.45106675,69.152475 7.44033033,62.3157 7.44033033,55.4681752 L0,55.4681752 L0,50.5125883 Z M37.8887818,50.5125883 C39.8213352,50.5125883 41.7538885,50.5125883 43.6864419,50.5233379 C43.6757054,59.0155585 43.7079146,67.5077795 43.664969,76 L37.8995182,76 C37.8673091,73.7425743 37.8887818,71.4851486 37.8780454,69.2277229 C37.8887818,62.9929274 37.8780454,56.7581328 37.8887818,50.5125883 L37.8887818,50.5125883 Z M140.110117,50.5125883 C142.042671,50.5125883 143.975224,50.5125883 145.907778,50.5233379 L145.907778,70.8831682 C149.268272,70.9044523 152.639505,70.893918 156,70.893918 L156,76 L140.120854,76 C140.088644,67.5077795 140.120854,59.0155585 140.110117,50.5125883 Z M85.612113,59.0585571 C85.0323471,57.0589079 83.9050243,55.2424326 82.3375089,53.8772276 C80.2653821,52.0390381 77.5598073,51.0393209 74.843496,50.6845826 C73.3081902,50.45884 71.7514106,50.5233379 70.2055829,50.5125883 L63.3450187,50.5125883 C63.2161814,50.5125883 63.0766082,50.5233379 62.9477715,50.5448371 C62.9799805,58.9618103 62.9477715,67.3787833 62.9692446,75.7955417 C62.9585081,75.84929 62.9477715,75.9460368 62.937035,75.9997851 L72.8572609,75.9997851 C73.7485975,75.8385402 74.6611919,75.84929 75.5413626,75.6557964 C78.5475569,75.1075644 81.4356504,73.6133633 83.400413,71.2376917 C84.8498277,69.5177483 85.7409496,67.3568539 86.0308326,65.1318925 C86.2885065,63.100424 86.1811423,61.0149928 85.612113,59.0585571 L85.612113,59.0585571 Z M79.0736407,67.5185286 C78.3543016,68.668741 77.2913968,69.5824607 76.0567105,70.1414426 C74.9401236,70.6574253 73.7054373,70.893918 72.4812716,70.9261667 C71.1929032,70.9371314 69.9045341,70.9261667 68.6161651,70.9371314 C68.5517464,69.5072135 68.6054285,68.0775104 68.5839561,66.6480223 C68.5839561,62.9178951 68.5839561,59.1985176 68.5949073,55.4683902 L72.5781145,55.4683902 C74.5750861,55.5113888 76.6042668,56.1993661 78.0536821,57.6183194 C79.3527871,58.8760281 80.0828633,60.6497198 80.2009634,62.4449108 C80.3190642,64.1968881 79.9969716,66.0135783 79.0736407,67.5185286 L79.0736407,67.5185286 Z M122.244735,70.0016973 C119.818307,64.1001413 117.402615,58.1878358 114.954929,52.2970296 C114.729249,51.705799 114.493156,51.1038188 114.224746,50.5340876 C112.227667,50.5018386 110.230909,50.5018386 108.233724,50.5340876 C104.819546,58.757567 101.405368,66.9810463 97.9914056,75.1937763 C97.8840414,75.4625177 97.7552041,75.7205088 97.7015227,76 L103.874957,76 C104.486932,74.3015555 105.141852,72.6246105 105.753828,70.9261667 C109.253897,70.8724185 112.764702,70.915417 116.275507,70.9046671 C116.458026,70.8509195 116.511709,71.044628 116.554653,71.1734087 C117.145156,72.7858555 117.74661,74.3875532 118.326161,76 L124.693065,76 C123.919615,73.9790664 123.060702,72.0011313 122.244735,70.0016973 L122.244735,70.0016973 Z M107.385547,66.4005656 C107.353339,66.1746083 107.492912,65.9813296 107.557329,65.7770862 C108.727599,62.7134368 109.93029,59.6497877 111.089607,56.5861385 C111.11108,56.5751738 111.154026,56.5646392 111.175499,56.5646392 C112.388713,59.789533 113.6234,63.0034623 114.847351,66.2283565 C114.847351,66.271355 114.858087,66.3573521 114.858087,66.4005656 C112.36724,66.3790666 109.876393,66.3790666 107.385547,66.4005656 Z" id="Shape"></path>
        </g>
    </g>
</svg>