<?xml version="1.0" encoding="UTF-8"?>
<svg width="300px" height="125px" viewBox="0 0 300 125" version="1.1" xmlns="http://www.w3.org/2000/svg" xmlns:xlink="http://www.w3.org/1999/xlink">
    <!-- Generator: Sketch 57.1 (83088) - https://sketch.com -->
    <title>Artboard</title>
    <desc>Created with Sketch.</desc>
    <g id="Artboard" stroke="none" stroke-width="1" fill="none" fill-rule="evenodd">
        <g id="YouTube_Logo_2017" transform="translate(25.000000, 35.000000)" fill-rule="nonzero">
            <g id="Group">
                <path d="M77.6565868,8.60588235 C76.7422115,5.24117647 74.0643981,2.58823529 70.6681471,1.68235294 C64.4634576,0 39.6446999,0 39.6446999,0 C39.6446999,0 14.8259421,0 8.62125269,1.61764706 C5.29031415,2.52352941 2.5471883,5.24117647 1.63281301,8.60588235 C0,14.7529412 0,27.5 0,27.5 C0,27.5 0,40.3117647 1.63281301,46.3941176 C2.5471883,49.7588235 5.22500163,52.4117647 8.62125269,53.3176471 C14.8912547,55 39.6446999,55 39.6446999,55 C39.6446999,55 64.4634576,55 70.6681471,53.3823529 C74.0643981,52.4764706 76.7422115,49.8235294 77.6565868,46.4588235 C79.289733,40.3117647 79.289733,27.5647059 79.289733,27.5647059 C79.289733,27.5647059 79.3547123,14.7529412 77.6565868,8.60588235 Z" id="Path" fill="#FFFFFF"></path>
                <polygon id="Path" fill="#000000" points="31.7418849 39.2764706 52.3806414 27.5 31.7418849 15.7235294"></polygon>
            </g>
            <g id="Group" transform="translate(86.653386, 1.964286)" fill="#FFFFFF">
                <path d="M28.5197918,48.3979592 C26.9390181,47.3571429 25.8193034,45.7308673 25.1606477,43.4540816 C24.501992,41.2423469 24.1726642,38.25 24.1726642,34.6071429 L24.1726642,29.5982143 C24.1726642,25.8903061 24.5678576,22.8979592 25.2923789,20.6211735 C26.0827657,18.3443878 27.268346,16.7181122 28.8491197,15.6772959 C30.4957589,14.6364796 32.6034571,14.1160714 35.2380799,14.1160714 C37.8068372,14.1160714 39.9145354,14.6364796 41.4953091,15.6772959 C43.0760828,16.7181122 44.1957975,18.4094388 44.9203187,20.6211735 C45.64484,22.8329082 46.0400334,25.8252551 46.0400334,29.5982143 L46.0400334,34.6071429 C46.0400334,38.315051 45.7107056,41.2423469 44.9861843,43.5191327 C44.261663,45.7308673 43.1419483,47.4221939 41.5611747,48.4630102 C39.980401,49.5038265 37.8068372,50.0242347 35.1063488,50.0242347 C32.3399949,49.9591837 30.1005655,49.4387755 28.5197918,48.3979592 Z M37.4116437,42.9336735 C37.8727027,41.8278061 38.0702994,39.9413265 38.0702994,37.4043367 L38.0702994,26.6058673 C38.0702994,24.1339286 37.8727027,22.3125 37.4116437,21.1415816 C36.9505848,19.9706633 36.2260635,19.4502551 35.1063488,19.4502551 C34.0524997,19.4502551 33.2621128,20.0357143 32.8669194,21.1415816 C32.4058604,22.3125 32.2082637,24.1339286 32.2082637,26.6058673 L32.2082637,37.4043367 C32.2082637,39.9413265 32.4058604,41.8278061 32.8669194,42.9336735 C33.2621128,44.0395408 34.0524997,44.625 35.1722144,44.625 C36.2260635,44.625 36.9505848,44.1045918 37.4116437,42.9336735 Z" id="Shape"></path>
                <path d="M150.107634,34.6721939 L150.107634,36.4285714 C150.107634,38.6403061 150.1735,40.3316327 150.305231,41.4375 C150.436962,42.5433673 150.700424,43.3890306 151.161483,43.8443878 C151.556677,44.3647959 152.215332,44.625 153.13745,44.625 C154.32303,44.625 155.113417,44.1696429 155.574476,43.2589286 C156.035535,42.3482143 156.233132,40.8520408 156.298998,38.7053571 L163.083151,39.0956633 C163.149017,39.4209184 163.149017,39.8112245 163.149017,40.3316327 C163.149017,43.5191327 162.292764,45.9260204 160.514394,47.4872449 C158.736024,49.0484694 156.233132,49.8290816 153.005719,49.8290816 C149.11965,49.8290816 146.419162,48.5931122 144.838388,46.1862245 C143.257615,43.7793367 142.467228,40.0714286 142.467228,34.997449 L142.467228,28.9477041 C142.467228,23.7436224 143.257615,19.9706633 144.904254,17.5637755 C146.550893,15.1568878 149.317247,13.9859694 153.203316,13.9859694 C155.903804,13.9859694 158.011502,14.5063776 159.460545,15.4821429 C160.909587,16.4579082 161.897571,18.0191327 162.490361,20.0357143 C163.083151,22.1173469 163.346614,24.9795918 163.346614,28.622449 L163.346614,34.5420918 L150.107634,34.5420918 L150.107634,34.6721939 Z M151.095618,20.1007653 C150.700424,20.6211735 150.436962,21.4017857 150.305231,22.5076531 C150.1735,23.6135204 150.107634,25.3048469 150.107634,27.5816327 L150.107634,30.0535714 L155.903804,30.0535714 L155.903804,27.5816327 C155.903804,25.369898 155.837939,23.6785714 155.706207,22.5076531 C155.574476,21.3367347 155.245148,20.5561224 154.849955,20.1007653 C154.454762,19.6454082 153.796106,19.3852041 153.005719,19.3852041 C152.083601,19.3201531 151.490811,19.5803571 151.095618,20.1007653 Z" id="Shape"></path>
                <path d="M9.28704537,34.0216837 L0.32932785,1.95153061 L8.16733068,1.95153061 L11.328878,16.4579082 C12.1192649,20.0357143 12.712055,23.0931122 13.1072484,25.630102 L13.3048451,25.630102 C13.5683074,23.8086735 14.1610975,20.8163265 15.0832155,16.5229592 L18.376494,1.95153061 L26.2144969,1.95153061 L17.1250482,34.0216837 L17.1250482,49.3737245 L9.35291094,49.3737245 L9.35291094,34.0216837 L9.28704537,34.0216837 Z" id="Path"></path>
                <path d="M71.530009,14.7665816 L71.530009,49.4387755 L65.3386454,49.4387755 L64.6799897,45.2104592 L64.482393,45.2104592 C62.8357538,48.3979592 60.2669965,50.0242347 56.9078525,50.0242347 C54.6025575,50.0242347 52.8900527,49.2436224 51.770338,47.747449 C50.6506233,46.2512755 50.1236988,43.9094388 50.1236988,40.6568878 L50.1236988,14.7665816 L58.0275672,14.7665816 L58.0275672,40.2015306 C58.0275672,41.7627551 58.2251639,42.8686224 58.5544917,43.5191327 C58.8838196,44.1696429 59.4766097,44.494898 60.2669965,44.494898 C60.9256522,44.494898 61.5843079,44.2997449 62.2429636,43.8443878 C62.9016193,43.4540816 63.3626783,42.9336735 63.6261406,42.2831633 L63.6261406,14.7665816 L71.530009,14.7665816 Z" id="Path"></path>
                <path d="M112.037335,14.7665816 L112.037335,49.4387755 L105.845971,49.4387755 L105.187315,45.2104592 L104.989719,45.2104592 C103.343079,48.3979592 100.774322,50.0242347 97.415178,50.0242347 C95.109883,50.0242347 93.3973782,49.2436224 92.2776635,47.747449 C91.1579488,46.2512755 90.6310243,43.9094388 90.6310243,40.6568878 L90.6310243,14.7665816 L98.5348927,14.7665816 L98.5348927,40.2015306 C98.5348927,41.7627551 98.7324894,42.8686224 99.0618172,43.5191327 C99.3911451,44.1696429 99.9839352,44.494898 100.774322,44.494898 C101.432978,44.494898 102.091633,44.2997449 102.750289,43.8443878 C103.408945,43.4540816 103.870004,42.9336735 104.133466,42.2831633 L104.133466,14.7665816 L112.037335,14.7665816 Z" id="Path"></path>
                <polygon id="Path" points="93.0021848 8.26147959 85.164182 8.26147959 85.164182 49.3737245 77.4579103 49.3737245 77.4579103 8.26147959 69.6199075 8.26147959 69.6199075 1.95153061 93.0021848 1.95153061 93.0021848 8.26147959"></polygon>
                <path d="M138.185966,20.2959184 C137.724907,18.0841837 136.93452,16.5229592 135.880671,15.5471939 C134.826822,14.5714286 133.311914,14.0510204 131.467678,14.0510204 C130.018635,14.0510204 128.635458,14.4413265 127.384012,15.2869898 C126.132567,16.067602 125.144583,17.1734694 124.485927,18.4744898 L124.420062,18.4744898 L124.420062,0.195153061 L116.779656,0.195153061 L116.779656,49.3737245 L123.300347,49.3737245 L124.090734,46.1211735 L124.288331,46.1211735 C124.881121,47.2920918 125.803239,48.2028061 127.054684,48.9183673 C128.30613,49.5688776 129.623442,49.9591837 131.13835,49.9591837 C133.838838,49.9591837 135.74894,48.7232143 137.000386,46.3163265 C138.251831,43.9094388 138.910487,40.0714286 138.910487,34.932398 L138.910487,29.4681122 C138.844622,25.5 138.647025,22.442602 138.185966,20.2959184 Z M130.940753,34.4119898 C130.940753,36.9489796 130.809022,38.9005102 130.611425,40.3316327 C130.413829,41.7627551 130.018635,42.8035714 129.557576,43.3890306 C129.030652,43.9744898 128.371996,44.2997449 127.581609,44.2997449 C126.922953,44.2997449 126.330163,44.1696429 125.803239,43.8443878 C125.276314,43.5191327 124.815255,43.0637755 124.485927,42.4783163 L124.485927,22.8329082 C124.74939,21.9221939 125.210449,21.1415816 125.869104,20.4910714 C126.52776,19.9056122 127.252281,19.5803571 127.976802,19.5803571 C128.767189,19.5803571 129.425845,19.9056122 129.821038,20.4910714 C130.282097,21.1415816 130.54556,22.182398 130.743156,23.6135204 C130.940753,25.1096939 131.006619,27.1913265 131.006619,29.8584184 L131.006619,34.4119898 L130.940753,34.4119898 Z" id="Shape"></path>
            </g>
        </g>
    </g>
</svg>