<?xml version="1.0" encoding="UTF-8"?>
<svg width="40px" height="40px" viewBox="0 0 40 40" version="1.1" xmlns="http://www.w3.org/2000/svg" xmlns:xlink="http://www.w3.org/1999/xlink">
    <!-- Generator: Sketch 57 (83077) - https://sketch.com -->
    <title>Group</title>
    <desc>Created with Sketch.</desc>
    <g id="Page-1" stroke="none" stroke-width="1" fill="none" fill-rule="evenodd">
        <g id="Group">
            <g id="Facebook" stroke="#8A8A8A">
                <rect id="Rectangle" x="0.5" y="0.5" width="39" height="39" rx="8"></rect>
            </g>
            <path d="M20.288,3 C11.294,3 4,10.293 4,19.29 C4,26.487 8.667,32.592 15.14,34.746 C15.955,34.896 16.252,34.393 16.252,33.961 C16.252,33.574 16.238,32.55 16.23,31.191 C11.699,32.175 10.743,29.007 10.743,29.007 C10.002,27.125 8.934,26.624 8.934,26.624 C7.455,25.614 9.046,25.634 9.046,25.634 C10.681,25.749 11.541,27.313 11.541,27.313 C12.994,29.802 15.354,29.083 16.282,28.666 C16.43,27.614 16.851,26.896 17.316,26.489 C13.699,26.078 9.896,24.68 9.896,18.438 C9.896,16.66 10.531,15.205 11.573,14.067 C11.405,13.655 10.846,11.998 11.733,9.756 C11.733,9.756 13.1,9.318 16.212,11.426 C17.511,11.064 18.905,10.884 20.29,10.877 C21.674,10.884 23.067,11.064 24.368,11.426 C27.478,9.318 28.843,9.756 28.843,9.756 C29.732,11.998 29.173,13.655 29.006,14.067 C30.05,15.205 30.68,16.66 30.68,18.438 C30.68,24.696 26.871,26.073 23.243,26.476 C23.827,26.979 24.348,27.973 24.348,29.492 C24.348,31.67 24.328,33.427 24.328,33.961 C24.328,34.397 24.622,34.904 25.448,34.745 C31.916,32.586 36.579,26.485 36.579,19.29 C36.579,10.293 29.285,3 20.288,3" id="Fill-51" fill="#979797"></path>
        </g>
    </g>
</svg>