<?xml version="1.0" encoding="UTF-8"?>
<svg width="40px" height="40px" viewBox="0 0 40 40" version="1.1" xmlns="http://www.w3.org/2000/svg" xmlns:xlink="http://www.w3.org/1999/xlink">
    <!-- Generator: Sketch 52.3 (67297) - http://www.bohemiancoding.com/sketch -->
    <title>Untitled</title>
    <desc>Created with Sketch.</desc>
    <g id="Page-1" stroke="none" stroke-width="1" fill="none" fill-rule="evenodd">
        <g id="Instagram">
            <rect id="Rectangle" stroke="#8A8A8A" x="0.5" y="0.5" width="39" height="39" rx="8"></rect>
            <path d="M19.0760239,28.2830882 C15.1295648,27.9018861 11.5184727,23.6983039 13.1200512,18.9199589 C13.2206911,18.6177792 13.4351109,18.2880749 13.5990614,17.9702092 C13.7546502,17.6680295 14.0162543,17.3134642 13.9412969,17.0885313 C11.3165956,17.0885313 6,17.0885313 6,17.0885313 L6,30.1828836 C6.26668089,32.7444554 8.29889078,34.7573092 10.9289676,35 L20.0340444,35 L29.1397184,35 C31.7745734,34.7309684 33.7389932,32.5577019 34,30.2509554 C34,30.2509554 34,19.3615378 34,17.0882353 C31.3305034,17.0882353 28.6601109,17.0882353 25.9903157,17.0882353 C29.1164249,22.1921411 25.5366894,28.9078691 19.0760239,28.2830882 Z" id="Path" fill="#979797"></path>
            <path d="M19.9870302,26.4705882 C22.49481,26.4705882 25.5455848,24.6587703 25.5149222,20.8813152 C25.4863435,17.4412994 22.7719637,15.0078826 19.304714,15.4299076 C18.2321202,15.5599467 17.6557833,15.7944385 17.1205283,16.1198373 C15.8910494,16.866057 14.734208,18.257957 14.5273102,20.1221517 C14.1093469,23.8842551 16.8389092,26.4705882 19.9870302,26.4705882 Z M16.2333983,19.2254238 C16.6814287,18.1556114 17.6918044,16.9560609 19.7822163,16.8097669 C22.3501304,16.6294581 24.7412138,18.9499938 24.0136481,21.9848414 C23.5566868,23.8887703 21.4668703,25.3288329 19.3050117,25.0208931 C17.2381177,24.7271011 15.0173156,22.1299313 16.2333983,19.2254238 Z" id="Shape" fill="#979797" fill-rule="nonzero"></path>
            <path d="M32.4223495,7.60989558 C31.6693031,6.83778099 30.4366661,6.12980566 29.0762377,6 L20.0215096,6 L19.9964875,6 L13.5083133,6 L13.5083133,13.2825555 L12.347466,13.2825555 L12.347466,6 L11.6307612,6 L11.6307612,13.2825555 L10.4690202,13.2825555 L10.4690202,6.06902607 C10.2119478,6.11942121 9.96023729,6.18844727 9.71805898,6.27427172 L9.71805898,13.2822501 L8.55721169,13.2822501 L8.55721169,6.84022439 C8.18783764,7.07418 7.86135865,7.33806726 7.59564764,7.61020101 C6.05112795,9.19413546 5.92691103,11.9163892 6.02521219,15.3823529 L14.6980552,15.3823529 C15.050152,15.298361 15.4722512,14.8530513 15.7906874,14.6120709 C16.9589818,13.7300033 18.4620958,13.2486534 19.9875511,13.2315495 L20.030744,13.2315495 C21.5564971,13.2486534 23.0596111,13.7300033 24.2276076,14.6120709 C24.5466396,14.8530513 24.968143,15.298361 25.319942,15.3823529 L33.992785,15.3823529 C34.0315097,11.8812653 33.967465,9.19383003 32.4223495,7.60989558 Z M31.2314161,12.3332944 C31.2314161,12.7416477 30.9091075,13.0724231 30.5117325,13.0724231 L27.5117599,13.0724231 C27.1146828,13.0724231 26.7917784,12.7416477 26.7917784,12.3332944 L26.7917784,9.25858015 C26.7917784,8.85083767 27.1143849,8.52036774 27.5117599,8.52036774 L30.5117325,8.52036774 C30.9091075,8.52036774 31.2314161,8.85083767 31.2314161,9.25858015 L31.2314161,12.3332944 Z" id="Shape" fill="#979797" fill-rule="nonzero"></path>
        </g>
    </g>
</svg>